<?xml version="1.0" encoding="UTF-8" standalone="no"?>
<!-- Created with Inkscape (http://www.inkscape.org/) -->

<svg
   xmlns:dc="http://purl.org/dc/elements/1.1/"
   xmlns:cc="http://creativecommons.org/ns#"
   xmlns:rdf="http://www.w3.org/1999/02/22-rdf-syntax-ns#"
   xmlns:svg="http://www.w3.org/2000/svg"
   xmlns="http://www.w3.org/2000/svg"
   xmlns:sodipodi="http://sodipodi.sourceforge.net/DTD/sodipodi-0.dtd"
   xmlns:inkscape="http://www.inkscape.org/namespaces/inkscape"
   width="28.461979"
   height="16.103905"
   id="svg5812"
   version="1.1"
   inkscape:version="0.48.4 r9939"
   sodipodi:docname="flag-united-kingdom.svg"
   inkscape:export-filename="/home/john/workspace/new_picta-it/assets/images/flag-united-kingdom.png"
   inkscape:export-xdpi="90"
   inkscape:export-ydpi="90">
  <defs
     id="defs5814">
    <clipPath
       id="border">
      <rect
         width="30"
         height="15"
         x="-15"
         y="-7.5"
         id="rect2680" />
    </clipPath>
  </defs>
  <sodipodi:namedview
     id="base"
     pagecolor="#ffffff"
     bordercolor="#666666"
     borderopacity="1.0"
     inkscape:pageopacity="0.0"
     inkscape:pageshadow="2"
     inkscape:zoom="0.35"
     inkscape:cx="14.230991"
     inkscape:cy="8.0519485"
     inkscape:document-units="px"
     inkscape:current-layer="layer1"
     showgrid="false"
     fit-margin-top="0"
     fit-margin-left="0"
     fit-margin-right="0"
     fit-margin-bottom="0"
     inkscape:window-width="464"
     inkscape:window-height="420"
     inkscape:window-x="1922"
     inkscape:window-y="24"
     inkscape:window-maximized="0" />
  <metadata
     id="metadata5817">
    <rdf:RDF>
      <cc:Work
         rdf:about="">
        <dc:format>image/svg+xml</dc:format>
        <dc:type
           rdf:resource="http://purl.org/dc/dcmitype/StillImage" />
        <dc:title></dc:title>
      </cc:Work>
    </rdf:RDF>
  </metadata>
  <g
     inkscape:label="Layer 1"
     inkscape:groupmode="layer"
     id="layer1"
     transform="translate(-360.76901,-524.31023)">
    <g
       transform="matrix(3.6166376,0,0,4.0926168,363.88533,507.00997)"
       id="g8077">
      <g
         clip-path="url(#border)"
         transform="matrix(0.2623245,0,0,0.2623245,3.0732049,6.1946207)"
         id="g8079">
        <circle
           sodipodi:ry="20"
           sodipodi:rx="20"
           sodipodi:cy="0"
           sodipodi:cx="0"
           cy="0"
           cx="0"
           style="fill:#0258a3;fill-opacity:1"
           r="20"
           id="circle8081"
           d="m 20,0 c 0,11.045695 -8.954305,20 -20,20 -11.045695,0 -20,-8.954305 -20,-20 0,-11.045695 8.954305,-20 20,-20 11.045695,0 20,8.954305 20,20 z" />
        <path
           inkscape:connector-curvature="0"
           id="diags_white"
           style="stroke:#ffffff;stroke-width:3"
           d="m -20,-10 40,20 m -40,0 40,-20" />
        <path
           inkscape:connector-curvature="0"
           id="diags_red"
           style="stroke:#eb3e38;stroke-width:2;stroke-opacity:1"
           d="m -20,-10 40,20 m -40,0 40,-20" />
        <path
           inkscape:connector-curvature="0"
           id="eraser_white"
           style="fill:#ffffff;stroke:none"
           d="M 0,0 20,10 17,10 -3,0 m 3,0 20,-10 3,0 L 3,0 M 0,0 -20,10 -23,10 -3,0 m 3,0 -20,-10 3,0 20,10" />
        <path
           inkscape:connector-curvature="0"
           id="cross_white"
           style="stroke:#ffffff;stroke-width:5"
           d="M -20,0 20,0 M 0,-10 0,10" />
        <path
           inkscape:connector-curvature="0"
           id="cross_red"
           style="fill:none;stroke:#eb3e38;stroke-width:3;stroke-opacity:1"
           d="M -20,0 20,0 M 3.1985596e-7,-10 l 0,20" />
      </g>
    </g>
  </g>
</svg>
