<?xml version="1.0" encoding="UTF-8" standalone="no"?>
<!-- Created with Inkscape (http://www.inkscape.org/) -->

<svg
   xmlns:dc="http://purl.org/dc/elements/1.1/"
   xmlns:cc="http://creativecommons.org/ns#"
   xmlns:rdf="http://www.w3.org/1999/02/22-rdf-syntax-ns#"
   xmlns:svg="http://www.w3.org/2000/svg"
   xmlns="http://www.w3.org/2000/svg"
   xmlns:sodipodi="http://sodipodi.sourceforge.net/DTD/sodipodi-0.dtd"
   xmlns:inkscape="http://www.inkscape.org/namespaces/inkscape"
   width="30.00013"
   height="29.999821"
   id="svg3770"
   version="1.1"
   inkscape:version="0.48.4 r9939"
   inkscape:export-filename="/home/john/workspace/new_picta-it/assets/images/icon-github.png"
   inkscape:export-xdpi="150"
   inkscape:export-ydpi="150"
   sodipodi:docname="New document 2">
  <defs
     id="defs3772" />
  <sodipodi:namedview
     id="base"
     pagecolor="#ffffff"
     bordercolor="#666666"
     borderopacity="1.0"
     inkscape:pageopacity="0.0"
     inkscape:pageshadow="2"
     inkscape:zoom="15.839192"
     inkscape:cx="15.785912"
     inkscape:cy="16.815199"
     inkscape:document-units="px"
     inkscape:current-layer="layer1"
     showgrid="false"
     fit-margin-top="0"
     fit-margin-left="0"
     fit-margin-right="0"
     fit-margin-bottom="0"
     inkscape:window-width="1918"
     inkscape:window-height="1030"
     inkscape:window-x="0"
     inkscape:window-y="0"
     inkscape:window-maximized="1" />
  <metadata
     id="metadata3775">
    <rdf:RDF>
      <cc:Work
         rdf:about="">
        <dc:format>image/svg+xml</dc:format>
        <dc:type
           rdf:resource="http://purl.org/dc/dcmitype/StillImage" />
        <dc:title></dc:title>
      </cc:Work>
    </rdf:RDF>
  </metadata>
  <g
     inkscape:label="Layer 1"
     inkscape:groupmode="layer"
     id="layer1"
     transform="translate(-359.76927,-517.59301)">
    <path
       id="path11772"
       d="m 374.76916,517.59301 c -8.28342,0 -14.99989,6.89058 -14.99989,15.3816 0,6.79682 4.29907,12.55573 10.25886,14.59142 0.0937,0.0201 0.1741,0.0268 0.25447,0.0268 0.55579,0 0.77007,-0.40848 0.77007,-0.76339 0,-0.3683 -0.0137,-1.33258 -0.0201,-2.61828 -0.56251,0.12723 -1.06472,0.1808 -1.51339,0.1808 -2.88612,0 -3.54239,-2.24328 -3.54239,-2.24328 -0.68303,-1.77456 -1.66739,-2.24999 -1.66739,-2.24999 -1.30581,-0.91741 -0.007,-0.94419 0.0938,-0.94419 0.007,0 0.007,0 0.007,0 1.50669,0.13391 2.29687,1.59373 2.29687,1.59373 0.74999,1.3125 1.75444,1.6808 2.65177,1.6808 0.7031,0 1.33928,-0.22768 1.71427,-0.40178 0.13393,-0.99107 0.52231,-1.66741 0.95088,-2.0558 -3.3281,-0.38838 -6.83031,-1.70757 -6.83031,-7.60039 0,-1.6808 0.5826,-3.05356 1.54016,-4.12498 -0.154,-0.38838 -0.66964,-1.95534 0.14733,-4.0714 0,0 0.10716,-0.0335 0.33482,-0.0335 0.54241,0 1.76786,0.20758 3.79016,1.61383 1.19864,-0.34152 2.47767,-0.50893 3.75667,-0.51563 1.27231,0.007 2.55802,0.17411 3.75667,0.51563 2.02232,-1.40625 3.24775,-1.61383 3.79015,-1.61383 0.22768,0 0.33484,0.0335 0.33484,0.0335 0.81695,2.11606 0.30134,3.68302 0.1473,4.0714 0.95759,1.07813 1.54018,2.45088 1.54018,4.12498 0,5.9062 -3.5089,7.20531 -6.85041,7.587 0.53571,0.47545 1.01785,1.41293 1.01785,2.84596 0,2.0558 -0.0201,3.7165 -0.0201,4.21873 0,0.3616 0.20758,0.77008 0.76336,0.77008 0.0804,0 0.17412,-0.007 0.26787,-0.0268 5.96649,-2.03569 10.25887,-7.80128 10.25887,-14.59142 0,-8.49102 -6.71649,-15.3816 -14.9999,-15.3816 z"
       inkscape:connector-curvature="0"
       style="fill:#f2fbfc;fill-opacity:1" />
  </g>
</svg>
