<?xml version="1.0" encoding="UTF-8" standalone="no"?>
<!-- Created with Inkscape (http://www.inkscape.org/) -->

<svg
   xmlns:dc="http://purl.org/dc/elements/1.1/"
   xmlns:cc="http://creativecommons.org/ns#"
   xmlns:rdf="http://www.w3.org/1999/02/22-rdf-syntax-ns#"
   xmlns:svg="http://www.w3.org/2000/svg"
   xmlns="http://www.w3.org/2000/svg"
   xmlns:sodipodi="http://sodipodi.sourceforge.net/DTD/sodipodi-0.dtd"
   xmlns:inkscape="http://www.inkscape.org/namespaces/inkscape"
   width="29.999741"
   height="29.999704"
   id="svg3770"
   version="1.1"
   inkscape:version="0.48.4 r9939"
   inkscape:export-filename="/home/john/workspace/new_picta-it/assets/images/icon-github.png"
   inkscape:export-xdpi="150"
   inkscape:export-ydpi="150"
   sodipodi:docname="icon-github.svg">
  <defs
     id="defs3772" />
  <sodipodi:namedview
     id="base"
     pagecolor="#ffffff"
     bordercolor="#666666"
     borderopacity="1.0"
     inkscape:pageopacity="0.0"
     inkscape:pageshadow="2"
     inkscape:zoom="15.839192"
     inkscape:cx="5.4979658"
     inkscape:cy="7.474063"
     inkscape:document-units="px"
     inkscape:current-layer="layer1"
     showgrid="false"
     fit-margin-top="0"
     fit-margin-left="0"
     fit-margin-right="0"
     fit-margin-bottom="0"
     inkscape:window-width="1918"
     inkscape:window-height="1030"
     inkscape:window-x="0"
     inkscape:window-y="0"
     inkscape:window-maximized="1" />
  <metadata
     id="metadata3775">
    <rdf:RDF>
      <cc:Work
         rdf:about="">
        <dc:format>image/svg+xml</dc:format>
        <dc:type
           rdf:resource="http://purl.org/dc/dcmitype/StillImage" />
        <dc:title></dc:title>
      </cc:Work>
    </rdf:RDF>
  </metadata>
  <g
     inkscape:label="Layer 1"
     inkscape:groupmode="layer"
     id="layer1"
     transform="translate(-370.05722,-508.25199)">
    <path
       inkscape:connector-curvature="0"
       style="fill:#f2fbfc;fill-opacity:1;fill-rule:nonzero;stroke:none"
       d="m 386.58021,508.88557 c -0.84478,-0.84477 -2.20344,-0.84477 -3.04821,-10e-6 l -2.59762,2.59763 3.40865,3.40866 c 0.81468,-0.26661 1.74238,-0.0756 2.38996,0.57202 0.6476,0.64759 0.83865,1.57529 0.57205,2.38998 l 3.33811,3.33812 c 0.81355,-0.26433 1.74364,-0.0743 2.38998,0.57202 0.91746,0.91747 0.91747,2.40499 0,3.32246 -0.91748,0.91746 -2.40499,0.91746 -3.32245,0 -0.68374,-0.68374 -0.86037,-1.68598 -0.52502,-2.53102 l -3.05995,-3.05995 0,8.15725 c 0.21282,0.10897 0.41345,0.24889 0.59162,0.42706 0.91747,0.91747 0.91747,2.40499 0,3.32245 -0.91747,0.91747 -2.40499,0.91747 -3.32245,0 -0.91747,-0.91746 -0.91748,-2.40498 0,-3.32245 0.21754,-0.21755 0.47011,-0.38715 0.73659,-0.5015 l 0,-8.2983 c -0.26137,-0.11447 -0.50725,-0.28 -0.72092,-0.49367 -0.68374,-0.68374 -0.86036,-1.68597 -0.52501,-2.53102 l -3.36164,-3.36164 -8.83114,8.83115 c -0.84477,0.84477 -0.84867,2.20734 -0.004,3.05212 l 12.84316,12.84315 c 0.84476,0.84477 2.20735,0.84086 3.05211,-0.004 l 12.83936,-12.83927 c 0.84476,-0.84477 0.84475,-2.20343 0,-3.0482 l -12.84348,-12.84316 z"
       id="rect11902" />
  </g>
</svg>
