<?xml version="1.0" encoding="UTF-8" standalone="no"?>
<!-- Created with Inkscape (http://www.inkscape.org/) -->

<svg
   xmlns:dc="http://purl.org/dc/elements/1.1/"
   xmlns:cc="http://creativecommons.org/ns#"
   xmlns:rdf="http://www.w3.org/1999/02/22-rdf-syntax-ns#"
   xmlns:svg="http://www.w3.org/2000/svg"
   xmlns="http://www.w3.org/2000/svg"
   xmlns:sodipodi="http://sodipodi.sourceforge.net/DTD/sodipodi-0.dtd"
   xmlns:inkscape="http://www.inkscape.org/namespaces/inkscape"
   width="195.40823"
   height="75.040833"
   id="svg3592"
   version="1.1"
   inkscape:version="0.48.4 r9939"
   sodipodi:docname="logo-picta-it.svg"
   inkscape:export-filename="/home/john/workspace/new_picta-it/assets/images/logo-picta-it.png"
   inkscape:export-xdpi="150"
   inkscape:export-ydpi="150">
  <defs
     id="defs3594">
    <clipPath
       id="border">
      <rect
         width="30"
         height="15"
         x="-15"
         y="-7.5"
         id="rect2680" />
    </clipPath>
  </defs>
  <sodipodi:namedview
     id="base"
     pagecolor="#ffffff"
     bordercolor="#666666"
     borderopacity="1.0"
     inkscape:pageopacity="0.0"
     inkscape:pageshadow="2"
     inkscape:zoom="5.6"
     inkscape:cx="72.414532"
     inkscape:cy="59.083223"
     inkscape:document-units="px"
     inkscape:current-layer="text5642"
     showgrid="false"
     fit-margin-top="0"
     fit-margin-left="0"
     fit-margin-right="0"
     fit-margin-bottom="0"
     inkscape:window-width="1918"
     inkscape:window-height="1030"
     inkscape:window-x="0"
     inkscape:window-y="0"
     inkscape:window-maximized="1" />
  <metadata
     id="metadata3597">
    <rdf:RDF>
      <cc:Work
         rdf:about="">
        <dc:format>image/svg+xml</dc:format>
        <dc:type
           rdf:resource="http://purl.org/dc/dcmitype/StillImage" />
        <dc:title></dc:title>
      </cc:Work>
    </rdf:RDF>
  </metadata>
  <g
     inkscape:label="Layer 1"
     inkscape:groupmode="layer"
     id="layer1"
     transform="translate(-212.96875,-501.54622)">
    <g
       style="font-size:44.18951035px;font-style:normal;font-weight:normal;line-height:125%;letter-spacing:0px;word-spacing:0px;fill:#2b575b;fill-opacity:1;stroke:none;font-family:Sans"
       id="text5642">
      <path
         style="font-variant:normal;font-stretch:normal;fill:#2b575b;font-family:Mohave;-inkscape-font-specification:Mohave"
         d="M 71.1875 0 L 71.25 30.71875 C 72.328442 31.847767 73.323858 32.854781 74.15625 33.53125 L 74.15625 20.71875 L 78.875 20.71875 C 83.11719 20.71875 86.5625 17.33594 86.5625 13.09375 L 86.5625 7.6875 C 86.5625 3.44531 83.073 0 78.875 0 L 71.1875 0 z M 74.15625 2.9375 L 78.875 2.9375 C 81.3938 2.9375 83.625 5.1687 83.625 7.6875 L 83.625 13.09375 C 83.625 15.61255 81.3938 17.8125 78.875 17.8125 L 74.15625 17.8125 L 74.15625 2.9375 z "
         transform="translate(212.96875,501.54622)"
         id="path3290" />
      <path
         style="font-variant:normal;font-stretch:normal;fill:#2b575b;font-family:Mohave;-inkscape-font-specification:Mohave"
         d="M 89.75 0 L 89.8125 35.59375 C 90.643716 35.74921 91.629567 35.838326 92.84375 35.875 L 92.84375 0 L 89.75 0 z "
         transform="translate(212.96875,501.54622)"
         id="path3292" />
      <path
         style="font-variant:normal;font-stretch:normal;fill:#2b575b;font-family:Mohave;-inkscape-font-specification:Mohave"
         d="M 107 0 C 102.18335 0 98 3.44531 98 7.6875 L 98 28.71875 C 98.030245 31.621574 99.975585 34.160297 102.75 35.46875 C 105.21491 35.287849 108.71286 35.014544 112.09375 34.71875 C 113.95061 33.30886 115.125 31.144124 115.125 28.71875 L 115.125 26.15625 L 112.1875 26.15625 L 112.1875 28.71875 C 112.1875 31.23755 109.73975 33.5 107 33.5 C 103.81836 33.5 100.96875 31.23755 100.96875 28.71875 L 100.96875 7.6875 C 100.96875 5.1687 103.81836 2.9375 107 2.9375 C 109.73975 2.9375 112.1875 5.1687 112.1875 7.6875 L 112.1875 10.09375 L 115.125 10.09375 L 115.125 7.6875 C 115.125 3.44531 111.50733 0 107 0 z "
         transform="translate(212.96875,501.54622)"
         id="path3294" />
      <path
         style="font-variant:normal;font-stretch:normal;fill:#2b575b;font-family:Mohave;-inkscape-font-specification:Mohave"
         d="M 118.15625 0 L 118.15625 2.9375 L 124.625 2.9375 L 124.625 33.59375 C 125.7396 33.492954 126.34345 33.419618 127.53125 33.3125 L 127.53125 2.9375 L 133.8125 2.9375 L 133.8125 0 L 118.15625 0 z M 127.53125 33.46875 C 126.46932 33.695787 125.62732 33.880161 124.625 34.09375 L 124.625 36.09375 L 127.53125 36.09375 L 127.53125 33.46875 z "
         transform="translate(212.96875,501.54622)"
         id="path3296" />
      <path
         d="m 352.50536,525.32646 c 1.45825,-7.1145 2.60718,-12.81496 3.84448,-18.73635 l 3.97706,18.73635 -7.82154,0 m 13.34523,12.32887 -7.55641,-36.10283 -3.93286,0 -7.24708,36.10283 3.00488,0 1.98853,-9.81007 8.61696,0 2.0769,9.81007 3.04908,0"
         style="font-variant:normal;font-stretch:normal;fill:#2b575b;font-family:Mohave;-inkscape-font-specification:Mohave"
         id="path3298" />
      <path
         d="m 379.7634,521.43778 0,-2.5188 -12.85915,0 0,2.5188 12.85915,0"
         style="font-variant:normal;font-stretch:normal;fill:#2b575b;font-family:Mohave;-inkscape-font-specification:Mohave"
         id="path3300" />
      <path
         d="m 388.17046,501.5525 -3.09327,0 0.0442,36.10283 3.04908,0 0,-36.10283"
         style="font-variant:normal;font-stretch:normal;fill:#2b575b;font-family:Mohave;-inkscape-font-specification:Mohave"
         id="path3302" />
      <path
         d="m 402.10189,504.46901 6.27491,0 0,-2.91651 -15.64309,0 0,2.91651 6.45167,0 0,33.18632 2.91651,0 0,-33.18632"
         style="font-variant:normal;font-stretch:normal;fill:#2b575b;font-family:Mohave;-inkscape-font-specification:Mohave"
         id="path3304" />
    </g>
    <path
       style="fill:#e6610f;fill-opacity:1;stroke:#f7fdfd;stroke-width:0;stroke-linecap:round;stroke-miterlimit:4;stroke-opacity:1;stroke-dasharray:none;marker-start:none"
       d="m 226.77371,514.95879 c 6.62927,13.92824 12.10912,39.22899 16.6809,44.88739 4.57179,5.65832 10.69911,-19.10967 13.36199,-25.20332 2.66291,-6.09364 8.23683,11.99054 12.11779,10.27127 3.88097,-1.71927 6.59821,-4.72272 9.48593,-8.10142 2.88771,-3.37871 6.78418,10.03203 11.20533,8.1084 4.42115,-1.92357 5.43871,-6.19044 9.15115,-4.9515 6.14162,2.04962 10.66871,2.04289 42.52449,-3.82369 -36.10084,5.65029 -38.88533,2.78037 -42.52449,0.97467 -4.05129,-2.01013 -7.12467,4.1538 -9.15115,4.95149 -2.02648,0.79771 -8.34946,-13.02268 -11.13995,-9.86795 -2.7905,3.15464 -5.30117,6.12898 -8.57047,7.68497 -3.2693,1.55601 -10.89739,-20.60145 -14.86606,-14.50781 -3.96867,6.09356 -8.18311,31.01468 -10.98294,23.57387 -2.79981,-7.4409 -8.84362,-31.75566 -16.77866,-44.8134 -7.93505,-13.05776 -6.99636,27.6431 -14.28799,38.58056 7.29163,-10.93746 7.14486,-41.6918 13.77413,-27.76353 z"
       id="path2985-8-8"
       inkscape:connector-curvature="0"
       sodipodi:nodetypes="zzzzzzscszzzzzzcz" />
  </g>
</svg>
