<?xml version="1.0" encoding="UTF-8" standalone="no"?>
<!-- Created with Inkscape (http://www.inkscape.org/) -->

<svg
   xmlns:dc="http://purl.org/dc/elements/1.1/"
   xmlns:cc="http://creativecommons.org/ns#"
   xmlns:rdf="http://www.w3.org/1999/02/22-rdf-syntax-ns#"
   xmlns:svg="http://www.w3.org/2000/svg"
   xmlns="http://www.w3.org/2000/svg"
   xmlns:sodipodi="http://sodipodi.sourceforge.net/DTD/sodipodi-0.dtd"
   xmlns:inkscape="http://www.inkscape.org/namespaces/inkscape"
   width="155.34956"
   height="148.82533"
   id="svg6204"
   version="1.1"
   inkscape:version="0.48.4 r9939"
   sodipodi:docname="logo-css3.svg"
   inkscape:export-filename="/home/john/workspace/new_picta-it/assets/images/logo-css3.png"
   inkscape:export-xdpi="90"
   inkscape:export-ydpi="90">
  <defs
     id="defs6206" />
  <sodipodi:namedview
     id="base"
     pagecolor="#ffffff"
     bordercolor="#666666"
     borderopacity="1.0"
     inkscape:pageopacity="0.0"
     inkscape:pageshadow="2"
     inkscape:zoom="0.35"
     inkscape:cx="204.11123"
     inkscape:cy="42.989151"
     inkscape:document-units="px"
     inkscape:current-layer="layer1"
     showgrid="false"
     fit-margin-top="0"
     fit-margin-left="0"
     fit-margin-right="0"
     fit-margin-bottom="0"
     inkscape:window-width="464"
     inkscape:window-height="420"
     inkscape:window-x="4"
     inkscape:window-y="48"
     inkscape:window-maximized="0" />
  <metadata
     id="metadata6209">
    <rdf:RDF>
      <cc:Work
         rdf:about="">
        <dc:format>image/svg+xml</dc:format>
        <dc:type
           rdf:resource="http://purl.org/dc/dcmitype/StillImage" />
        <dc:title></dc:title>
      </cc:Work>
    </rdf:RDF>
  </metadata>
  <g
     inkscape:label="Layer 1"
     inkscape:groupmode="layer"
     id="layer1"
     transform="translate(-170.88877,-312.24028)">
    <g
       id="g26830"
       transform="matrix(1.1651868,0,0,1.1651868,183.32088,-2034.2411)">
      <path
         style="fill:#99aeae;fill-opacity:1;stroke:#cfd9d9;stroke-width:0.7409268;stroke-opacity:1"
         d="m 7.5587887,2014.2205 102.5557013,6 c 6.73888,0.3943 12.18483,5.4344 12.18483,12.1848 l 0,90.5557 c 0,6.7504 -5.44595,11.7906 -12.18483,12.1849 l -102.5557013,6 c -6.73888001,0.3943 -12.18484,-5.4345 -12.18484,-12.1849 l 0,-102.5557 c 0,-6.7504 5.44595999,-12.5791 12.18484,-12.1848 z"
         id="rect4709-6-1-7-1-2-1-3"
         inkscape:connector-curvature="0"
         sodipodi:nodetypes="sssssssss" />
      <path
         id="path6422-6-0-7-7"
         d="m 0.17442869,2016.1336 c 0,0 -10.62499969,5.4623 -10.62499969,13.4375 0,7.2945 -0.15434,40.1446 -0.1875,46.1875 l -0.0312,0 c 0,0 -8.1e-4,1.7281 0,1.875 -8.1e-4,0.1469 0,1.875 0,1.875 l 0.0312,0 c 0.0332,6.0429 0.1875,38.893 0.1875,46.1875 0,7.9752 10.62499969,13.4375 10.62499969,13.4375 -2.70711999,-2.2703 -4.43749999,-5.7654 -4.43749999,-9.5625 l 0,-50.0625 0,-3.75 0,-50.0625 c 0,-3.7971 1.73038,-7.2922 4.43749999,-9.5625 z"
         style="fill:#cfd9d9;fill-opacity:1;stroke:none"
         inkscape:connector-curvature="0" />
      <path
         style="fill:#f2fbfc;fill-opacity:1;stroke:#cfd9d9;stroke-width:0.63012475;stroke-opacity:1"
         d="m 15.227149,2023.711 87.218981,5.1028 c 5.73112,0.3353 10.36265,4.6217 10.36265,10.3626 l 0,77.0135 c 0,5.7409 -4.63153,10.0274 -10.36265,10.3627 l -87.218981,5.1028 c -5.7311203,0.3353 -10.3626603,-4.6218 -10.3626603,-10.3627 l 0,-87.219 c 0,-5.7409 4.63154,-10.698 10.3626603,-10.3627 z"
         id="rect4709-6-1-7-3-9-1-2-2"
         inkscape:connector-curvature="0"
         sodipodi:nodetypes="sssssssss" />
      <g
         id="g24962">
        <path
           id="polygon31-3"
           d="m 77.51036,2040.0983 c 0,0 0,0 0,0 0,0 -5.340843,-0.27 -5.340843,-0.27 0,0 5.568744,5.6573 5.568744,5.6573 0,0 0.0069,2.5591 0.0069,2.5591 0,0 -11.436766,-0.4423 -11.436766,-0.4423 0,0 -0.0093,-3.0475 -0.0093,-3.0475 0,0 5.552115,0.2396 5.552115,0.2396 0,0 -5.568844,-5.7086 -5.568844,-5.7086 0,0 -0.008,-2.6071 -0.008,-2.6071 0,0 11.227783,0.6181 11.227783,0.6181 0,0 0.0082,3.0014 0.0082,3.0014"
           style="fill:#151515"
           inkscape:connector-curvature="0" />
        <path
           id="polygon33-1"
           d="m 64.016455,2039.4161 c 0,0 0,0 0,0 0,0 -5.340843,-0.27 -5.340843,-0.27 0,0 5.57104,5.766 5.57104,5.766 0,0 0.0081,2.6108 0.0081,2.6108 0,0 -11.436766,-0.4423 -11.436766,-0.4423 0,0 -0.01073,-3.108 -0.01073,-3.108 0,0 5.552552,0.2396 5.552552,0.2396 0,0 -5.571804,-5.8174 -5.571804,-5.8174 0,0 -0.0092,-2.6589 -0.0092,-2.6589 0,0 11.228009,0.6181 11.228009,0.6181 0,0 0.0096,3.0621 0.0096,3.0621"
           style="fill:#151515"
           inkscape:connector-curvature="0" />
        <path
           id="polygon35-0"
           d="m 44.891847,2038.5769 c 0,0 0.01809,4.9232 0.01809,4.9232 0,0 5.761934,0.2497 5.761934,0.2497 0,0 0.01141,3.2482 0.01141,3.2482 0,0 -9.855855,-0.3811 -9.855855,-0.3811 0,0 -0.04372,-11.5413 -0.04372,-11.5413 0,0 9.859603,0.5428 9.859603,0.5428 0,0 0.01141,3.2488 0.01141,3.2488 0,0 -5.762875,-0.2903 -5.762875,-0.2903"
           style="fill:#151515"
           inkscape:connector-curvature="0" />
        <path
           id="polygon37-9"
           d="m 33.247912,2114.1694 c 0,0 -6.103524,-62.7109 -6.103524,-62.7109 0,0 64.316925,2.0064 64.316925,2.0064 0,0 -5.716125,57.7151 -5.716125,57.7151 0,0 -26.263134,8.1897 -26.263134,8.1897 0,0 -26.234142,-5.2003 -26.234142,-5.2003"
           style="fill:#1673b6"
           inkscape:connector-curvature="0" />
        <path
           id="polygon39-7"
           d="m 59.319147,2057.3855 c 0,0 0.18567,56.8625 0.18567,56.8625 0,0 21.224361,-6.4987 21.224361,-6.4987 0,0 4.875402,-49.7325 4.875402,-49.7325 0,0 -26.285433,-0.6313 -26.285433,-0.6313"
           style="fill:#35a9db"
           inkscape:connector-curvature="0" />
        <path
           id="polygon43-3"
           d="m 79.335878,2066.457 c 0,0 -1.924153,19.7951 -1.924153,19.7951 0,0 -17.997454,0.3349 -17.997454,0.3349 0,0 -0.02412,-7.3851 -0.02412,-7.3851 0,0 10.6452,-0.083 10.6452,-0.083 0,0 0.713167,-7.4428 0.713167,-7.4428 0,0 -11.383061,-0.037 -11.383061,-0.037 0,0 -0.02412,-7.3857 -0.02412,-7.3857 0,0 0.02782,4e-4 0.02782,4e-4 0,0 20.154326,0.2822 20.154326,0.2822 0,0 -0.187618,1.9209 -0.187618,1.9209"
           style="fill:#ffffff"
           inkscape:connector-curvature="0" />
        <path
           id="polygon45-1"
           d="m 49.910897,2090.5086 c 0,0 -4.351625,0.1044 -4.351625,0.1044 0,0 -3.720621,0.089 -3.720621,0.089 0,0 1.170945,11.8479 1.170945,11.8479 0,0 16.479329,3.5254 16.479329,3.5254 0,0 0.0371,-0.017 0.0371,-0.017 0,0 -0.02508,-7.6838 -0.02508,-7.6838 0,0 -0.03485,0.016 -0.03485,0.016 0,0 -8.961608,-1.9293 -8.961608,-1.9293 0,0 -0.593593,-5.9533 -0.593593,-5.9533"
           style="fill:#ebebeb"
           inkscape:connector-curvature="0" />
        <path
           id="polygon47-2"
           d="m 75.963707,2101.2005 c 0,0 0.117477,-1.2224 0.117477,-1.2224 0,0 1.360116,-14.0311 1.360116,-14.0311 0,0 -8.069009,0.1465 -8.069009,0.1465 0,0 -0.93939,9.7786 -0.93939,9.7786 0,0 -8.959833,2.5158 -8.959833,2.5158 0,0 0.02509,7.6835 0.02509,7.6835 0,0 16.465554,-4.8709 16.465554,-4.8709"
           style="fill:#ffffff"
           inkscape:connector-curvature="0" />
        <path
           id="polygon49-2"
           d="m 39.789223,2069.8686 c 0,0 -0.381476,-3.8552 -0.381476,-3.8552 0,0 -0.200393,-2.0418 -0.200393,-2.0418 0,0 20.161881,0.2823 20.161881,0.2823 0,0 0.01497,4.5868 0.01497,4.5868 0,0 0.0091,2.7803 0.0091,2.7803 0,0 5.9e-5,0.018 5.9e-5,0.018 0,0 -19.410692,-0.062 -19.410692,-0.062 0,0 0,0 0,0 0,0 -0.02571,-1e-4 -0.02571,-1e-4 0,0 -0.167714,-1.7076 -0.167714,-1.7076"
           style="fill:#ebebeb"
           inkscape:connector-curvature="0" />
        <path
           id="polygon51-5"
           d="m 50.403592,2085.0742 c 0,0 -0.379951,-3.7895 -0.379951,-3.7895 0,0 -0.199587,-2.0071 -0.199587,-2.0071 0,0 9.566105,-0.075 9.566105,-0.075 0,0 0.01498,4.5871 0.01498,4.5871 0,0 0.0091,2.78 0.0091,2.78 0,0 5.8e-5,0.018 5.8e-5,0.018 0,0 -8.817942,0.164 -8.817942,0.164 0,0 0,0 0,0 0,0 -0.0257,5e-4 -0.0257,5e-4 0,0 -0.167037,-1.6781 -0.167037,-1.6781"
           style="fill:#ebebeb"
           inkscape:connector-curvature="0" />
      </g>
    </g>
  </g>
</svg>
