<?xml version="1.0" encoding="UTF-8" standalone="no"?>
<!-- Created with Inkscape (http://www.inkscape.org/) -->

<svg
   xmlns:dc="http://purl.org/dc/elements/1.1/"
   xmlns:cc="http://creativecommons.org/ns#"
   xmlns:rdf="http://www.w3.org/1999/02/22-rdf-syntax-ns#"
   xmlns:svg="http://www.w3.org/2000/svg"
   xmlns="http://www.w3.org/2000/svg"
   xmlns:sodipodi="http://sodipodi.sourceforge.net/DTD/sodipodi-0.dtd"
   xmlns:inkscape="http://www.inkscape.org/namespaces/inkscape"
   width="155.37065"
   height="148.78903"
   id="svg6000"
   version="1.1"
   inkscape:version="0.48.4 r9939"
   sodipodi:docname="logo-android.svg"
   inkscape:export-filename="/home/john/workspace/new_picta-it/assets/images/logo-android.png"
   inkscape:export-xdpi="90"
   inkscape:export-ydpi="90">
  <defs
     id="defs6002" />
  <sodipodi:namedview
     id="base"
     pagecolor="#ffffff"
     bordercolor="#666666"
     borderopacity="1.0"
     inkscape:pageopacity="0.0"
     inkscape:pageshadow="2"
     inkscape:zoom="0.35"
     inkscape:cx="77.682658"
     inkscape:cy="74.404702"
     inkscape:document-units="px"
     inkscape:current-layer="layer1"
     showgrid="false"
     fit-margin-top="0"
     fit-margin-left="0"
     fit-margin-right="0"
     fit-margin-bottom="0"
     inkscape:window-width="464"
     inkscape:window-height="420"
     inkscape:window-x="4"
     inkscape:window-y="48"
     inkscape:window-maximized="0" />
  <metadata
     id="metadata6005">
    <rdf:RDF>
      <cc:Work
         rdf:about="">
        <dc:format>image/svg+xml</dc:format>
        <dc:type
           rdf:resource="http://purl.org/dc/dcmitype/StillImage" />
        <dc:title></dc:title>
      </cc:Work>
    </rdf:RDF>
  </metadata>
  <g
     inkscape:label="Layer 1"
     inkscape:groupmode="layer"
     id="layer1"
     transform="translate(-297.31734,-457.97785)">
    <g
       id="g26798"
       transform="matrix(1.1651868,0,0,1.1651868,-141.37522,-1798.9661)">
      <path
         style="fill:#99aeae;fill-opacity:1;stroke:#cfd9d9;stroke-width:0.7409268;stroke-opacity:1"
         d="m 394.72819,1937.3566 102.5557,6 c 6.73888,0.3943 12.18483,5.4344 12.18483,12.1848 l 0,90.5557 c 0,6.7504 -5.44595,11.7906 -12.18483,12.1849 l -102.5557,6 c -6.73888,0.3943 -12.18484,-5.4345 -12.18484,-12.1849 l 0,-102.5557 c 0,-6.7504 5.44596,-12.5791 12.18484,-12.1848 z"
         id="rect4709-6-1-7"
         inkscape:connector-curvature="0"
         sodipodi:nodetypes="sssssssss" />
      <path
         id="path6422"
         transform="translate(560.00008,0.45718548)"
         d="m -172.65625,1938.8125 c 0,0 -10.625,5.4623 -10.625,13.4375 0,7.2945 -0.15434,40.1446 -0.1875,46.1875 l -0.0312,0 c 0,0 -8.1e-4,1.7281 0,1.875 -8.1e-4,0.1469 0,1.875 0,1.875 l 0.0312,0 c 0.0332,6.0429 0.1875,38.893 0.1875,46.1875 0,7.9752 10.625,13.4375 10.625,13.4375 -2.70712,-2.2703 -4.4375,-5.7654 -4.4375,-9.5625 l 0,-50.0625 0,-3.75 0,-50.0625 c 0,-3.7971 1.73038,-7.2922 4.4375,-9.5625 z"
         style="fill:#cfd9d9;fill-opacity:1;stroke:none"
         inkscape:connector-curvature="0" />
      <path
         style="fill:#f2fbfc;fill-opacity:1;stroke:#cfd9d9;stroke-width:0.63012475;stroke-opacity:1"
         d="m 402.39655,1946.8471 87.21898,5.1028 c 5.73112,0.3353 10.36265,4.6217 10.36265,10.3626 l 0,77.0135 c 0,5.7409 -4.63153,10.0274 -10.36265,10.3627 l -87.21898,5.1028 c -5.73112,0.3353 -10.36266,-4.6218 -10.36266,-10.3627 l 0,-87.219 c 0,-5.7409 4.63154,-10.698 10.36266,-10.3627 z"
         id="rect4709-6-1-7-3"
         inkscape:connector-curvature="0"
         sodipodi:nodetypes="sssssssss" />
      <path
         inkscape:connector-curvature="0"
         style="fill:#a4c639;stroke:#ffffff;stroke-width:1.44639885"
         d="m 432.11817,1961.5319 c -0.21019,0.01 -0.43401,0.052 -0.63077,0.1438 -0.78702,0.3676 -1.06285,1.2728 -0.62247,2.0316 0,0 3.65715,6.2512 3.65715,6.2512 -6.47709,3.2149 -10.80246,9.2947 -10.78184,16.4305 0,0 45.55765,0.7346 45.55765,0.7346 -0.0338,-6.6707 -4.40662,-12.6508 -10.91037,-16.204 0,0 3.61015,-5.6838 3.61015,-5.6838 0.4347,-0.6818 0.1518,-1.5732 -0.63837,-2.0044 -0.29632,-0.1619 -0.60431,-0.2251 -0.91632,-0.2171 -0.52002,0.014 -1.02041,0.2401 -1.29206,0.6677 0,0 -3.67245,5.8123 -3.67245,5.8123 -2.77033,-1.1152 -5.83103,-1.7953 -9.03502,-1.9381 -3.20399,-0.1425 -6.26037,0.2752 -9.02276,1.1755 0,0 -3.72036,-6.3535 -3.72036,-6.3535 -0.33024,-0.5674 -0.95157,-0.8766 -1.58216,-0.8463 0,0 0,0 0,0 m 3.8506,14.6322 c 0.55301,0.017 1.01161,0.4254 1.01378,0.9378 0.002,0.5125 -0.45296,0.9225 -1.00595,0.9066 -0.55299,-0.016 -1.01171,-0.4532 -1.01391,-0.9671 -0.002,-0.514 0.45305,-0.8948 1.00608,-0.8773 0,0 0,0 0,0 m 21.01975,0.6583 c 0.55303,0.017 1.01133,0.4133 1.01312,0.91 0.002,0.4967 -0.45366,0.8936 -1.00664,0.8778 -0.55299,-0.016 -0.97983,-0.4392 -0.98166,-0.9375 -0.002,-0.4982 0.42217,-0.868 0.97518,-0.8503 0,0 0,0 0,0 m -40.25215,9.4837 c -3.32722,-0.053 -5.9817,2.47 -5.96584,5.6713 0,0 0.10156,20.4908 0.10156,20.4908 0.0158,3.2013 2.6929,5.6905 6.01648,5.5941 3.3236,-0.096 6.00774,-2.6976 5.99319,-5.8449 0,0 -0.0932,-20.1442 -0.0932,-20.1442 -0.0146,-3.1472 -2.72499,-5.7136 -6.0522,-5.7671 0,0 0,0 0,0 m 59.56562,0.9579 c -3.32722,-0.053 -5.98691,2.2537 -5.97752,5.188 0,0 0.06,18.7738 0.06,18.7738 0.009,2.9344 2.68121,5.2072 6.00481,5.1108 3.32359,-0.096 5.98142,-2.4805 5.97334,-5.3609 0,0 -0.0517,-18.4281 -0.0517,-18.4281 -0.008,-2.8804 -2.68176,-5.2301 -6.00898,-5.2836 0,0 0,0 0,0 m -52.56175,-0.8748 c 0,0 0.1513,32.9009 0.1513,32.9009 0.0133,2.8808 2.49181,5.0904 5.53775,4.9731 0,0 1.51238,-0.058 1.51238,-0.058 0,0 0.0464,10.532 0.0464,10.532 0.0137,3.1111 2.68697,5.4698 6.00793,5.2639 3.32094,-0.2052 5.97308,-2.8505 5.9607,-5.9077 0,0 -0.0419,-10.3492 -0.0419,-10.3492 0,0 7.75097,-0.2984 7.75097,-0.2984 0,0 0.0391,10.2309 0.0391,10.2309 0.0115,3.0222 2.71456,5.3067 6.03552,5.1008 3.32094,-0.2051 5.97483,-2.7782 5.9646,-5.7463 0,0 -0.0346,-10.0476 -0.0346,-10.0476 0,0 1.22882,-0.047 1.22882,-0.047 3.04592,-0.1166 5.50694,-2.3666 5.49823,-5.0592 0,0 -0.0994,-30.753 -0.0994,-30.753 0,0 -45.55766,-0.7346 -45.55766,-0.7346"
         id="rect8573"
         sodipodi:nodetypes="cccccccccscccccccsssccssscsssssssssssssscsccscsccscsccscc" />
    </g>
  </g>
</svg>
