<?xml version="1.0" encoding="UTF-8" standalone="no"?>
<!-- Created with Inkscape (http://www.inkscape.org/) -->

<svg
   xmlns:dc="http://purl.org/dc/elements/1.1/"
   xmlns:cc="http://creativecommons.org/ns#"
   xmlns:rdf="http://www.w3.org/1999/02/22-rdf-syntax-ns#"
   xmlns:svg="http://www.w3.org/2000/svg"
   xmlns="http://www.w3.org/2000/svg"
   xmlns:sodipodi="http://sodipodi.sourceforge.net/DTD/sodipodi-0.dtd"
   xmlns:inkscape="http://www.inkscape.org/namespaces/inkscape"
   width="155.3629"
   height="148.78903"
   id="svg5834"
   version="1.1"
   inkscape:version="0.48.4 r9939"
   sodipodi:docname="logo-angular.svg"
   inkscape:export-filename="/home/john/workspace/new_picta-it/assets/images/logo-angular.png"
   inkscape:export-xdpi="90"
   inkscape:export-ydpi="90">
  <defs
     id="defs5836" />
  <sodipodi:namedview
     id="base"
     pagecolor="#ffffff"
     bordercolor="#666666"
     borderopacity="1.0"
     inkscape:pageopacity="0.0"
     inkscape:pageshadow="2"
     inkscape:zoom="0.35"
     inkscape:cx="77.682663"
     inkscape:cy="74.405343"
     inkscape:document-units="px"
     inkscape:current-layer="layer1"
     showgrid="false"
     fit-margin-top="0"
     fit-margin-left="0"
     fit-margin-right="0"
     fit-margin-bottom="0"
     inkscape:window-width="464"
     inkscape:window-height="420"
     inkscape:window-x="4"
     inkscape:window-y="48"
     inkscape:window-maximized="0" />
  <metadata
     id="metadata5839">
    <rdf:RDF>
      <cc:Work
         rdf:about="">
        <dc:format>image/svg+xml</dc:format>
        <dc:type
           rdf:resource="http://purl.org/dc/dcmitype/StillImage" />
        <dc:title></dc:title>
      </cc:Work>
    </rdf:RDF>
  </metadata>
  <g
     inkscape:label="Layer 1"
     inkscape:groupmode="layer"
     id="layer1"
     transform="translate(-297.31734,-457.97849)">
    <g
       id="g26819"
       transform="matrix(1.1651868,0,0,1.1651868,55.169475,-1974.1076)">
      <path
         style="fill:#99aeae;fill-opacity:1;stroke:#cfd9d9;stroke-width:0.7409268;stroke-opacity:1"
         d="m 226.04734,2087.6686 102.5557,6 c 6.73888,0.3943 12.18483,5.4344 12.18483,12.1848 l 0,90.5557 c 0,6.7504 -5.44595,11.7906 -12.18483,12.1849 l -102.5557,6 c -6.73888,0.3943 -12.18484,-5.4345 -12.18484,-12.1849 l 0,-102.5557 c 0,-6.7504 5.44596,-12.5791 12.18484,-12.1848 z"
         id="rect4709-6-1-7-1-2"
         inkscape:connector-curvature="0"
         sodipodi:nodetypes="sssssssss" />
      <path
         id="path6422-6-0"
         d="m 218.66298,2089.5817 c 0,0 -10.625,5.4623 -10.625,13.4375 0,7.2945 -0.15434,40.1446 -0.1875,46.1875 l -0.0312,0 c 0,0 -8.1e-4,1.7281 0,1.875 -8.1e-4,0.1469 0,1.875 0,1.875 l 0.0312,0 c 0.0332,6.0429 0.1875,38.893 0.1875,46.1875 0,7.9752 10.625,13.4375 10.625,13.4375 -2.70712,-2.2703 -4.4375,-5.7654 -4.4375,-9.5625 l 0,-50.0625 0,-3.75 0,-50.0625 c 0,-3.7971 1.73038,-7.2922 4.4375,-9.5625 z"
         style="fill:#cfd9d9;fill-opacity:1;stroke:none"
         inkscape:connector-curvature="0" />
      <path
         style="fill:#f2fbfc;fill-opacity:1;stroke:#cfd9d9;stroke-width:0.63012475;stroke-opacity:1"
         d="m 233.7157,2097.1591 87.21898,5.1028 c 5.73112,0.3353 10.36265,4.6217 10.36265,10.3626 l 0,77.0135 c 0,5.7409 -4.63153,10.0274 -10.36265,10.3627 l -87.21898,5.1028 c -5.73112,0.3353 -10.36266,-4.6218 -10.36266,-10.3627 l 0,-87.219 c 0,-5.7409 4.63154,-10.698 10.36266,-10.3627 z"
         id="rect4709-6-1-7-3-9-1"
         inkscape:connector-curvature="0"
         sodipodi:nodetypes="sssssssss" />
      <g
         id="g9630"
         transform="matrix(0.95071162,0,0,1,81.196071,50.673061)">
        <path
           style="fill:#f1f1f1"
           d="m 188.94207,2133.6886 c -9.85977,-4.6398 -17.98698,-8.5575 -18.05746,-8.5946 -0.10853,-0.058 -0.66848,-4.1304 -3.6577,-26.681 -1.94376,-14.7302 -3.48637,-26.8434 -3.5037,-26.8608 0.0459,-0.044 42.74844,-12.359 42.83339,-12.3549 0.0391,0 0.83874,0.278 1.77692,0.6132 0.93815,0.3345 2.26031,0.8045 2.93814,1.0444 0.67781,0.2398 1.82161,0.6445 2.54177,0.8993 0.72013,0.2543 1.86387,0.6565 2.54161,0.8938 9.2072,3.1889 33.42047,11.2868 33.44198,11.3033 0.0256,0.019 -0.0637,0.7225 -0.40278,3.1776 -0.4305,3.1206 -0.89109,6.4676 -0.97765,7.1003 -0.057,0.4165 -0.27274,1.9873 -0.47951,3.4915 -0.20677,1.505 -0.59743,4.3558 -0.86809,6.3357 -2.84231,20.8948 -3.85163,28.3038 -3.87623,28.3226 -0.14566,0.1118 -36.17009,19.4326 -36.23974,19.4328 -0.0509,0 -8.15448,-3.6053 -18.01095,-8.1232 0,0 0,0 0,0"
           id="path9640"
           inkscape:connector-curvature="0" />
        <path
           style="fill:#b2b1b1"
           d="m 188.98339,2133.6731 c -9.87927,-4.6469 -18.01817,-8.5816 -18.08345,-8.6324 -0.0935,-0.073 -0.86375,-5.6988 -3.63906,-26.6504 -1.93871,-14.6992 -3.50871,-26.7911 -3.48727,-26.811 0.0215,-0.02 9.65334,-2.9392 21.40698,-6.3862 0,0 21.37796,-5.9811 21.37796,-5.9811 0,0 21.60997,7.5607 21.60997,7.5607 0,0 21.6001,7.1954 21.6001,7.1954 0,0 -0.0171,0.1852 -0.0171,0.1852 -0.082,0.8478 -6.57244,48.1766 -6.61202,48.2098 -0.059,0.05 -36.16003,19.4549 -36.1851,19.4487 -0.01,5e-4 -8.09422,-3.6146 -17.97018,-8.1387 0,0 -8.4e-4,0 -8.4e-4,0 m -1.91129,-13.5624 c 0,0 3.03317,-0.1313 3.03317,-0.1313 0,0 2.6181,-6.1969 2.6181,-6.1969 0,0 2.61917,-6.1564 2.61917,-6.1564 0,0 5.66404,-0.075 5.66404,-0.075 0,0 5.66404,-0.075 5.66404,-0.075 0,0 -0.0157,-3.5532 -0.0157,-3.5532 0,0 -0.0157,-3.5533 -0.0157,-3.5533 0,0 -3.926,0.016 -3.926,0.016 -3.11082,0.013 -3.91782,0 -3.88658,-0.072 0.0217,-0.049 1.78795,-3.9218 3.92567,-8.5844 0,0 3.88852,-8.4125 3.88852,-8.4125 0,0 -0.0322,-4.6232 -0.0322,-4.6232 -0.0171,-2.5428 -0.0601,-6.3622 -0.0951,-8.4874 0,0 -0.0638,-3.8644 -0.0638,-3.8644 0,0 -13.03768,26.4713 -13.03768,26.4713 -7.16057,14.9353 -13.03823,27.4156 -13.06801,27.4916 -0.0526,0.1339 -9e-5,0.1361 1.81988,0.038 1.03074,-0.055 3.23899,-0.1597 4.90723,-0.2325 0,0 9e-4,2e-4 9e-4,2e-4"
           id="path9638"
           inkscape:connector-curvature="0" />
        <path
           style="fill:#a95d56"
           d="m 190.68645,2130.0883 c 0,0 -16.08038,-7.7459 -16.08038,-7.7459 0,0 -0.97524,-7.6209 -0.97524,-7.6209 -4.28558,-33.6506 -5.07616,-39.9272 -5.05164,-39.9498 0.0156,-0.018 8.54554,-2.6539 18.95817,-5.7852 0,0 18.9382,-5.4661 18.9382,-5.4661 0,0 9.2614,3.2149 9.2614,3.2149 5.09301,1.7396 13.84993,4.6825 19.45976,6.5357 5.60915,1.8288 10.22904,3.3315 10.267,3.3616 0.04,0.032 -0.74404,5.7496 -1.86655,13.6367 -1.06374,7.5004 -2.44712,17.2938 -3.07453,21.7502 -0.62719,4.4637 -1.15478,8.1327 -1.17257,8.1463 -0.0899,0.069 -32.48887,17.3356 -32.53646,17.338 -0.0306,0 -7.28671,-3.2948 -16.12716,-7.4155 0,0 0,0 0,0 m 43.67501,-11.1142 c -9e-5,-0.024 -5.04921,-9.3291 -11.22482,-20.8468 -6.18055,-11.7015 -12.44828,-23.7578 -13.924,-26.6342 -1.47602,-2.8869 -2.70753,-5.2353 -2.73645,-5.2092 -0.029,0.026 -5.93876,11.884 -13.12637,26.5944 -7.18037,14.9789 -13.06881,27.4638 -13.09199,27.5001 -0.0416,0.066 4.88969,-0.1206 8.24942,-0.3089 0,0 1.62787,-0.091 1.62787,-0.091 0,0 2.61476,-6.1796 2.61476,-6.1796 0,0 2.61584,-6.1394 2.61584,-6.1394 0,0 11.88307,-0.1555 11.88307,-0.1555 0,0 11.88309,-0.1555 11.88309,-0.1555 0,0 2.89226,5.8725 2.89226,5.8725 1.59025,3.2112 2.90338,5.8591 2.91838,5.896 0.037,0.091 9.41927,-0.051 9.41894,-0.1423 0,0 0,-1e-4 0,-1e-4 m -35.46879,-18.7134 c 0.11583,-0.3181 7.71938,-16.8188 7.74876,-16.8186 0.0336,4e-4 8.78012,16.364 8.92479,16.6944 0.0539,0.1229 -0.20479,0.1274 -8.32159,0.1597 -5.46759,0.022 -8.36846,0.01 -8.35197,-0.037 0,0 1e-5,0 1e-5,0"
           id="path9636"
           inkscape:connector-curvature="0" />
        <path
           style="fill:#c34639"
           d="m 190.72816,2130.0775 c -15.77629,-7.5997 -16.04632,-7.7361 -16.10557,-7.9784 -0.0713,-0.2916 -5.9929,-46.8634 -5.99443,-47.1427 -9.1e-4,-0.1677 0.054,-0.2078 0.44028,-0.3233 0.24271,-0.073 8.69579,-2.6762 18.78668,-5.7102 10.09315,-2.9505 18.42656,-5.3136 18.51668,-5.3273 0.0934,-0.014 8.52994,2.8824 19.63587,6.6579 10.70624,3.5496 19.47023,6.3922 19.47771,6.398 0.0376,0.028 -6.14372,43.4631 -6.19021,43.5003 -0.0784,0.062 -32.28479,17.239 -32.41852,17.2894 -0.062,0.023 -7.25488,-3.2167 -16.14849,-7.3637 0,0 0,0 0,0 m 43.71031,-11.0368 c -8e-5,-0.022 -5.84099,-10.7927 -12.98586,-24.1572 -7.15152,-13.6107 -13.44566,-25.7869 -13.98098,-26.8363 0,0 -0.9734,-1.9115 -0.9734,-1.9115 0,0 -0.19305,0.3914 -0.19305,0.3914 -0.10626,0.2154 -6.02616,12.1282 -13.14912,26.7126 -7.11585,14.8479 -12.92038,27.2009 -12.90544,27.2119 0.0712,0.053 9.8286,-0.4362 9.88801,-0.4955 0.0375,-0.037 1.23418,-2.8406 2.65986,-6.2198 0,0 2.59296,-6.1137 2.59296,-6.1137 0,0 11.85016,-0.1545 11.85016,-0.1545 0,0 11.85016,-0.1546 11.85016,-0.1546 0,0 2.92724,5.9472 2.92724,5.9472 1.60948,3.2519 2.9633,5.9122 3.00885,5.9243 0.0455,0.016 1.75839,0 3.80629,-0.025 5.2994,-0.068 5.6044,-0.075 5.60424,-0.1192 0,0 8e-5,4e-4 8e-5,4e-4 m -35.53702,-18.7635 c 0.0175,-0.029 1.75522,-3.8422 3.86398,-8.4514 2.10945,-4.5845 3.85524,-8.3167 3.87893,-8.3163 0.0238,4e-4 1.73104,3.197 3.79364,7.085 2.06205,3.8681 4.07118,7.6153 4.46518,8.3447 0,0 0.71634,1.3244 0.71634,1.3244 0,0 -8.3742,0.033 -8.3742,0.033 -4.60581,0.018 -8.36054,0.01 -8.34386,-0.019 0,0 -10e-6,-7e-4 -10e-6,-7e-4"
           id="path9634"
           inkscape:connector-curvature="0" />
        <path
           style="fill:#9d3c33"
           d="m 206.73671,2122.4552 c 0,0 -0.0661,-14.9797 -0.0661,-14.9797 0,0 6.21062,-0.081 6.21062,-0.081 0,0 6.21061,-0.081 6.21061,-0.081 0,0 2.92724,5.9472 2.92724,5.9472 1.60948,3.2519 2.96329,5.9112 3.00884,5.922 0.13147,0.031 9.35474,-0.095 9.39112,-0.1286 0.0176,-0.018 -5.81116,-10.7867 -12.95978,-24.1579 -7.15527,-13.6176 -13.45472,-25.8045 -13.99277,-26.8597 0,0 -0.97838,-1.922 -0.97838,-1.922 0,0 -0.006,-1.2743 -0.006,-1.2743 -0.005,-1.18 0.004,-1.2717 0.12906,-1.2358 0.15336,0.044 38.85282,13.0311 38.87374,13.0471 0.0376,0.028 -6.14372,43.4631 -6.19021,43.5003 -0.10791,0.087 -32.36038,17.2763 -32.42548,17.2796 -0.0378,0 -0.0955,-6.5075 -0.1329,-14.9762 0,0 0,0 0,0 m -0.1348,-30.5514 c -0.0204,-4.6175 -0.01,-8.3952 0.0242,-8.3946 0.0338,6e-4 1.74926,3.1973 3.81187,7.0853 2.06204,3.8681 4.07117,7.6153 4.46517,8.3447 0,0 0.71634,1.3244 0.71634,1.3244 0,0 -4.49029,0.018 -4.49029,0.018 0,0 -4.49027,0.018 -4.49027,0.018 0,0 -0.0371,-8.3955 -0.0371,-8.3955 0,0 4e-5,0 4e-5,0"
           id="path9632"
           inkscape:connector-curvature="0" />
      </g>
    </g>
  </g>
</svg>
