<?xml version="1.0" encoding="UTF-8" standalone="no"?>
<!-- Created with Inkscape (http://www.inkscape.org/) -->

<svg
   xmlns:dc="http://purl.org/dc/elements/1.1/"
   xmlns:cc="http://creativecommons.org/ns#"
   xmlns:rdf="http://www.w3.org/1999/02/22-rdf-syntax-ns#"
   xmlns:svg="http://www.w3.org/2000/svg"
   xmlns="http://www.w3.org/2000/svg"
   xmlns:sodipodi="http://sodipodi.sourceforge.net/DTD/sodipodi-0.dtd"
   xmlns:inkscape="http://www.inkscape.org/namespaces/inkscape"
   width="155.35718"
   height="148.78893"
   id="svg6082"
   version="1.1"
   inkscape:version="0.48.4 r9939"
   sodipodi:docname="logo-html5.svg"
   inkscape:export-filename="/home/john/workspace/new_picta-it/assets/images/logo-html5.png"
   inkscape:export-xdpi="90"
   inkscape:export-ydpi="90">
  <defs
     id="defs6084" />
  <sodipodi:namedview
     id="base"
     pagecolor="#ffffff"
     bordercolor="#666666"
     borderopacity="1.0"
     inkscape:pageopacity="0.0"
     inkscape:pageshadow="2"
     inkscape:zoom="0.35"
     inkscape:cx="-181.60305"
     inkscape:cy="-74.176394"
     inkscape:document-units="px"
     inkscape:current-layer="layer1"
     showgrid="false"
     fit-margin-top="0"
     fit-margin-left="0"
     fit-margin-right="0"
     fit-margin-bottom="0"
     inkscape:window-width="464"
     inkscape:window-height="420"
     inkscape:window-x="4"
     inkscape:window-y="48"
     inkscape:window-maximized="0" />
  <metadata
     id="metadata6087">
    <rdf:RDF>
      <cc:Work
         rdf:about="">
        <dc:format>image/svg+xml</dc:format>
        <dc:type
           rdf:resource="http://purl.org/dc/dcmitype/StillImage" />
        <dc:title></dc:title>
      </cc:Work>
    </rdf:RDF>
  </metadata>
  <g
     inkscape:label="Layer 1"
     inkscape:groupmode="layer"
     id="layer1"
     transform="translate(-556.60305,-309.39686)">
    <g
       id="g26846"
       transform="matrix(1.1651868,0,0,1.1651868,607.12984,-1857.7914)">
      <path
         style="fill:#99aeae;fill-opacity:1;stroke:#cfd9d9;stroke-width:0.7409268;stroke-opacity:1"
         d="m -25.135258,1860.3337 102.555697,6 c 6.73888,0.3943 12.18483,5.4344 12.18483,12.1848 l 0,90.5557 c 0,6.7504 -5.44595,11.7906 -12.18483,12.1849 l -102.555697,6 c -6.73888,0.3943 -12.18484,-5.4345 -12.18484,-12.1849 l 0,-102.5557 c 0,-6.7504 5.44596,-12.5791 12.18484,-12.1848 z"
         id="rect4709-6-1-7-1-2-1"
         inkscape:connector-curvature="0"
         sodipodi:nodetypes="sssssssss" />
      <path
         id="path6422-6-0-7"
         d="m -32.519618,1862.2468 c 0,0 -10.625,5.4623 -10.625,13.4375 0,7.2945 -0.15434,40.1446 -0.1875,46.1875 l -0.0312,0 c 0,0 -8.1e-4,1.7281 0,1.875 -8.1e-4,0.1469 0,1.875 0,1.875 l 0.0312,0 c 0.0332,6.0429 0.1875,38.893 0.1875,46.1875 0,7.9752 10.625,13.4375 10.625,13.4375 -2.70712,-2.2703 -4.4375,-5.7654 -4.4375,-9.5625 l 0,-50.0625 0,-3.75 0,-50.0625 c 0,-3.7971 1.73038,-7.2922 4.4375,-9.5625 z"
         style="fill:#cfd9d9;fill-opacity:1;stroke:none"
         inkscape:connector-curvature="0" />
      <path
         style="fill:#f2fbfc;fill-opacity:1;stroke:#cfd9d9;stroke-width:0.63012475;stroke-opacity:1"
         d="m -17.466901,1869.8242 87.21898,5.1028 c 5.73112,0.3353 10.36265,4.6217 10.36265,10.3626 l 0,77.0135 c 0,5.7409 -4.63153,10.0274 -10.36265,10.3627 l -87.21898,5.1028 c -5.731117,0.3353 -10.362657,-4.6218 -10.362657,-10.3627 l 0,-87.219 c 0,-5.7409 4.63154,-10.698 10.362657,-10.3627 z"
         id="rect4709-6-1-7-3-9-1-2"
         inkscape:connector-curvature="0"
         sodipodi:nodetypes="sssssssss" />
      <g
         id="g22959">
        <path
           style="fill:#020202"
           inkscape:connector-curvature="0"
           d="m 0.36649069,1880.7637 c 0,0 4.09416441,0.2254 4.09416441,0.2254 0,0 0.014879,3.8276 0.014879,3.8276 0,0 3.7447214,0.1859 3.7447214,0.1859 0,0 -0.01441,-3.8074 -0.01441,-3.8074 0,0 4.0943755,0.2254 4.0943755,0.2254 0,0 0.04208,11.4633 0.04208,11.4633 0,0 -4.0926084,-0.1583 -4.0926084,-0.1583 0,0 -0.014612,-3.8609 -0.014612,-3.8609 0,0 -3.744017,-0.1653 -3.744017,-0.1653 0,0 0.015088,3.8813 0.015088,3.8813 0,0 -4.09304838,-0.1583 -4.09304838,-0.1583 0,0 -0.0466166,-11.6587 -0.0466166,-11.6587 0,0 0,0 0,0 0,0 0,0 0,0"
           id="path15-1" />
        <path
           style="fill:#020202"
           inkscape:connector-curvature="0"
           d="m 17.697086,1885.4893 c 0,0 -3.603888,-0.1788 -3.603888,-0.1788 0,0 -0.01373,-3.7918 -0.01373,-3.7918 0,0 11.30459,0.6223 11.30459,0.6223 0,0 0.01231,3.7304 0.01231,3.7304 0,0 -3.605418,-0.179 -3.605418,-0.179 0,0 0.02572,7.5582 0.02572,7.5582 0,0 -4.092592,-0.1583 -4.092592,-0.1583 0,0 -0.02699,-7.603 -0.02699,-7.603 0,0 0,0 0,0 0,0 0,0 0,0"
           id="path17-7" />
        <path
           style="fill:#020202"
           inkscape:connector-curvature="0"
           d="m 27.178227,1882.2396 c 0,0 4.26918,0.235 4.26918,0.235 0,0 2.637685,4.0471 2.637685,4.0471 0,0 2.611775,-3.7581 2.611775,-3.7581 0,0 4.270482,0.2351 4.270482,0.2351 0,0 0.03119,10.9939 0.03119,10.9939 0,0 -4.075736,-0.1577 -4.075736,-0.1577 0,0 -0.01623,-5.4824 -0.01623,-5.4824 0,0 -2.804503,3.8172 -2.804503,3.8172 0,0 -0.0703,0 -0.0703,0 0,0 -2.83007,-4.0814 -2.83007,-4.0814 0,0 0.0173,5.5287 0.0173,5.5287 0,0 -4.004582,-0.1549 -4.004582,-0.1549 0,0 -0.03622,-11.2197 -0.03622,-11.2197 0,0 0,0 0,0 0,0 1.6e-5,0 1.6e-5,0"
           id="path19-4" />
        <path
           style="fill:#020202"
           inkscape:connector-curvature="0"
           d="m 43.0049,1883.1108 c 0,0 4.095255,0.2254 4.095255,0.2254 0,0 0.01932,7.2927 0.01932,7.2927 0,0 5.755967,0.2538 5.755967,0.2538 0,0 0.0088,3.5694 0.0088,3.5694 0,0 -9.849155,-0.381 -9.849155,-0.381 0,0 -0.03021,-10.9603 -0.03021,-10.9603 0,0 0,0 0,0 0,0 0,0 0,0"
           id="path21-0" />
        <path
           style="fill:#e45126"
           d="m -603.87458,537.8771 c 0,0 -43.00838,434.08471 -43.00838,434.08471 0,0 -197.59631,61.59409 -197.59631,61.59409 0,0 -197.37973,-39.11229 -197.37973,-39.11229 0,0 -45.9216,-471.65952 -45.9216,-471.65952 0,0 483.90602,15.09301 483.90602,15.09301"
           id="polygon5-4"
           transform="matrix(0.13291203,0,0,0.13296604,139.02946,1828.0551)"
           inkscape:connector-curvature="0" />
        <path
           transform="matrix(0.13291203,0,0,0.13296604,139.02946,1828.0551)"
           style="fill:#f1682b"
           d="m -845.70663,567.36172 c 0,0 1.397,427.6711 1.397,427.6711 0,0 159.68729,-48.87341 159.68729,-48.87341 0,0 36.6831,-374.04853 36.6831,-374.04853 0,0 -197.76739,-4.74916 -197.76739,-4.74916"
           id="polygon7-6"
           inkscape:connector-curvature="0" />
        <path
           transform="matrix(0.13291203,0,0,0.13296604,139.02946,1828.0551)"
           style="fill:#ebebeb"
           d="m -995.85954,636.2554 c 0,0 15.47512,157.24861 15.47512,157.24861 0,0 135.40793,-2.62047 135.40793,-2.62047 0,0 -0.18144,-55.54445 -0.18144,-55.54445 0,0 -80.08899,0.68619 -80.08899,0.68619 0,0 -5.74042,-57.77879 -5.74042,-57.77879 0,0 85.64361,0.21159 85.64361,0.21159 0,0 -0.18145,-55.54892 -0.18145,-55.54892 0,0 -0.20978,-0.003 -0.20978,-0.003 0,0 -151.6339,-2.0084 -151.6339,-2.0084 0,0 1.50932,15.35742 1.50932,15.35742"
           id="polygon9-8"
           inkscape:connector-curvature="0" />
        <path
           transform="matrix(0.13291203,0,0,0.13296604,139.02946,1828.0551)"
           style="fill:#ebebeb"
           d="m -844.49792,937.38957 c 0,0 -0.18879,-57.79392 -0.18879,-57.79392 0,0 -0.26453,0.0798 -0.26453,0.0798 0,0 -67.42225,-14.46073 -67.42225,-14.46073 0,0 -4.46701,-44.77378 -4.46701,-44.77378 0,0 -32.74008,0.81024 -32.74008,0.81024 0,0 -27.9926,0.69275 -27.9926,0.69275 0,0 8.80996,89.10787 8.80996,89.10787 0,0 123.98623,26.42422 123.98623,26.42422 0,0 0.27907,-0.0864 0.27907,-0.0864"
           id="polygon11-1"
           inkscape:connector-curvature="0" />
        <path
           transform="matrix(0.13291203,0,0,0.13296604,139.02946,1828.0551)"
           style="fill:#ffffff"
           d="m -844.70724,937.44732 c 0,0 123.88056,-36.73354 123.88056,-36.73354 0,0 0.8825,-9.19481 0.8825,-9.19481 0,0 13.82697,-142.85781 13.82697,-142.85781 0,0 1.43643,-14.52566 1.43643,-14.52566 0,0 -16.30874,0.13973 -16.30874,0.13973 0,0 -124.37808,1.06565 -124.37808,1.06565 0,0 0.18149,55.54672 0.18149,55.54672 0,0 74.51003,-1.44195 74.51003,-1.44195 0,0 -6.80952,71.23166 -6.80952,71.23166 0,0 -67.41048,18.97523 -67.41048,18.97523 0,0 0.18884,57.79478 0.18884,57.79478"
           id="polygon23-5"
           inkscape:connector-curvature="0" />
        <path
           transform="matrix(0.13291203,0,0,0.13296604,139.02946,1828.0551)"
           style="fill:#ffffff"
           d="m -698.13894,666.6931 c 0,0 2.68449,-27.32704 2.68449,-27.32704 0,0 1.4103,-14.45053 1.4103,-14.45053 0,0 -151.69081,-2.00915 -151.69081,-2.00915 0,0 0.11273,34.50114 0.11273,34.50114 0,0 0.0683,20.91281 0.0683,20.91281 0,0 4.4e-4,0.13724 4.4e-4,0.13724 0,0 146.03749,0.36079 146.03749,0.36079 0,0 0,0 0,0 0,0 0.19509,4.9e-4 0.19509,4.9e-4 0,0 1.18194,-12.12575 1.18194,-12.12575"
           id="polygon25-6"
           inkscape:connector-curvature="0" />
      </g>
    </g>
  </g>
</svg>
