<?xml version="1.0" encoding="UTF-8" standalone="no"?>
<!-- Created with Inkscape (http://www.inkscape.org/) -->

<svg
   xmlns:dc="http://purl.org/dc/elements/1.1/"
   xmlns:cc="http://creativecommons.org/ns#"
   xmlns:rdf="http://www.w3.org/1999/02/22-rdf-syntax-ns#"
   xmlns:svg="http://www.w3.org/2000/svg"
   xmlns="http://www.w3.org/2000/svg"
   xmlns:sodipodi="http://sodipodi.sourceforge.net/DTD/sodipodi-0.dtd"
   xmlns:inkscape="http://www.inkscape.org/namespaces/inkscape"
   width="155.3629"
   height="148.78903"
   id="svg5910"
   version="1.1"
   inkscape:version="0.48.4 r9939"
   sodipodi:docname="logo-mongodb.svg"
   inkscape:export-filename="/home/john/workspace/new_picta-it/assets/images/logo-mongodb.png"
   inkscape:export-xdpi="90"
   inkscape:export-ydpi="90">
  <defs
     id="defs5912" />
  <sodipodi:namedview
     id="base"
     pagecolor="#ffffff"
     bordercolor="#666666"
     borderopacity="1.0"
     inkscape:pageopacity="0.0"
     inkscape:pageshadow="2"
     inkscape:zoom="0.35"
     inkscape:cx="77.68266"
     inkscape:cy="74.405343"
     inkscape:document-units="px"
     inkscape:current-layer="layer1"
     showgrid="false"
     fit-margin-top="0"
     fit-margin-left="0"
     fit-margin-right="0"
     fit-margin-bottom="0"
     inkscape:window-width="464"
     inkscape:window-height="420"
     inkscape:window-x="4"
     inkscape:window-y="48"
     inkscape:window-maximized="0" />
  <metadata
     id="metadata5915">
    <rdf:RDF>
      <cc:Work
         rdf:about="">
        <dc:format>image/svg+xml</dc:format>
        <dc:type
           rdf:resource="http://purl.org/dc/dcmitype/StillImage" />
        <dc:title></dc:title>
      </cc:Work>
    </rdf:RDF>
  </metadata>
  <g
     inkscape:label="Layer 1"
     inkscape:groupmode="layer"
     id="layer1"
     transform="translate(-297.31734,-457.97849)">
    <g
       id="g26804"
       transform="matrix(1.1651868,0,0,1.1651868,-131.26041,-1974.1076)">
      <path
         style="fill:#99aeae;fill-opacity:1;stroke:#cfd9d9;stroke-width:0.7409268;stroke-opacity:1"
         d="m 386.04734,2087.6686 102.5557,6 c 6.73888,0.3943 12.18483,5.4344 12.18483,12.1848 l 0,90.5557 c 0,6.7504 -5.44595,11.7906 -12.18483,12.1849 l -102.5557,6 c -6.73888,0.3943 -12.18484,-5.4345 -12.18484,-12.1849 l 0,-102.5557 c 0,-6.7504 5.44596,-12.5791 12.18484,-12.1848 z"
         id="rect4709-6-1-7-1"
         inkscape:connector-curvature="0"
         sodipodi:nodetypes="sssssssss" />
      <path
         id="path6422-6"
         d="m 378.66298,2089.5817 c 0,0 -10.625,5.4623 -10.625,13.4375 0,7.2945 -0.15434,40.1446 -0.1875,46.1875 l -0.0312,0 c 0,0 -8.1e-4,1.7281 0,1.875 -8.1e-4,0.1469 0,1.875 0,1.875 l 0.0312,0 c 0.0332,6.0429 0.1875,38.893 0.1875,46.1875 0,7.9752 10.625,13.4375 10.625,13.4375 -2.70712,-2.2703 -4.4375,-5.7654 -4.4375,-9.5625 l 0,-50.0625 0,-3.75 0,-50.0625 c 0,-3.7971 1.73038,-7.2922 4.4375,-9.5625 z"
         style="fill:#cfd9d9;fill-opacity:1;stroke:none"
         inkscape:connector-curvature="0" />
      <path
         style="fill:#f2fbfc;fill-opacity:1;stroke:#cfd9d9;stroke-width:0.63012475;stroke-opacity:1"
         d="m 393.7157,2097.1591 87.21898,5.1028 c 5.73112,0.3353 10.36265,4.6217 10.36265,10.3626 l 0,77.0135 c 0,5.7409 -4.63153,10.0274 -10.36265,10.3627 l -87.21898,5.1028 c -5.73112,0.3353 -10.36266,-4.6218 -10.36266,-10.3627 l 0,-87.219 c 0,-5.7409 4.63154,-10.698 10.36266,-10.3627 z"
         id="rect4709-6-1-7-3-9"
         inkscape:connector-curvature="0"
         sodipodi:nodetypes="sssssssss" />
      <g
         id="g7863"
         transform="matrix(0.79271217,0,0,0.82220004,-2.9839167,500.5469)">
        <path
           inkscape:connector-curvature="0"
           id="path7881"
           d="m 517.41396,2055.0338 c -3.8133,-1.3711 -6.05543,-3.3424 -7.73134,-6.7976 0,0 -1.01679,-2.1018 -1.01679,-2.1018 0,0 -0.21246,-38.1604 -0.21246,-38.1604 0,0 -0.21245,-38.1604 -0.21245,-38.1604 0,0 1.17232,-2.3801 1.17232,-2.3801 1.93985,-3.9238 5.61515,-6.5515 10.03797,-7.1838 2.31159,-0.1133 70.28996,3.1399 72.65365,3.453 2.63835,0.5737 6.01168,2.3786 7.74541,4.1407 1.72361,1.7451 3.22386,4.4855 3.70459,6.7703 0.45122,2.1427 0.64244,63.7806 0.20537,65.9272 -0.82492,4.0584 -3.58523,7.5576 -7.53877,9.5637 0,0 -2.38943,1.221 -2.38943,1.221 0,0 -37.31702,2.1734 -37.31702,2.1734 0,0 -37.31684,2.1795 -37.31684,2.1795 0,0 -1.78417,-0.637 -1.78417,-0.637 0,0 -4e-5,-0.01 -4e-5,-0.01 m 38.06677,-16.2466 c -0.003,-0.7777 -0.20393,-0.7788 -1.18772,-0.01 -0.51402,0.4047 -0.20348,0.8442 0.57476,0.8127 0.44958,-0.018 0.61548,-0.2367 0.61296,-0.8072 0,0 0,0 0,0"
           style="fill:#a59f91" />
        <path
           inkscape:connector-curvature="0"
           id="path7879"
           d="m 517.56224,2055.0133 c -3.92531,-1.2505 -6.85454,-4.0672 -8.30773,-7.9889 0,0 -0.75388,-2.039 -0.75388,-2.039 0,0 -0.2061,-36.9941 -0.2061,-36.9941 0,0 -0.20609,-36.9941 -0.20609,-36.9941 0,0 0.73246,-2.0453 0.73246,-2.0453 1.42881,-3.98 4.3386,-6.8 8.32933,-8.0731 0,0 2.0463,-0.6478 2.0463,-0.6478 0,0 36.58078,1.7388 36.58078,1.7388 0,0 36.58077,1.7389 36.58077,1.7389 0,0 2.05262,0.7802 2.05262,0.7802 4.00299,1.5121 6.93756,4.3064 8.4002,7.9993 0,0 0.74981,1.8883 0.74981,1.8883 0,0 0.1034,33.1944 0.1034,33.1944 0,0 0.10339,33.1944 0.10339,33.1944 0,0 -0.73653,1.8951 -0.73653,1.8951 -1.43622,3.7055 -4.34603,6.5257 -8.32932,8.073 0,0 -2.04226,0.7983 -2.04226,0.7983 0,0 -36.57197,2.0452 -36.57197,2.0452 0,0 -36.57202,2.0434 -36.57202,2.0434 0,0 -1.95322,-0.6175 -1.95322,-0.6175 0,0 6e-5,0.01 6e-5,0.01 m 38.22533,-18.6746 c -0.0107,-2.4248 0.12992,-3.8665 0.45137,-4.6239 0.44293,-1.0431 0.42755,-1.1482 -0.29856,-2.043 -0.44061,-0.5435 -0.93502,-1.7838 -1.16475,-2.9219 -0.6139,-3.044 -0.81212,-3.02 -1.20082,0.149 -0.19748,1.611 -0.51926,3.277 -0.71512,3.7016 -0.26102,0.5662 -0.26191,1.1244 -0.004,2.0905 0.19393,0.7244 0.45213,2.4821 0.5737,3.9058 0.22816,2.671 0.59308,3.3382 1.79867,3.2889 0.52102,-0.021 0.57302,-0.3512 0.55891,-3.5468 0,0 3.2e-4,-2e-4 3.2e-4,-2e-4"
           style="fill:#846757" />
        <path
           inkscape:connector-curvature="0"
           id="path7877"
           d="m 518.23863,2055.1657 c -3.82511,-1.1238 -6.81179,-3.6506 -8.55123,-7.2372 0,0 -1.02336,-2.116 -1.02336,-2.116 0,0 -0.21067,-37.8385 -0.21067,-37.8385 0,0 -0.21066,-37.8385 -0.21066,-37.8385 0,0 1.16985,-2.3753 1.16985,-2.3753 1.44902,-2.9335 3.83342,-5.2041 6.81396,-6.4896 0,0 2.14604,-0.9195 2.14604,-0.9195 0,0 37.40542,1.7715 37.40542,1.7715 0,0 37.40542,1.7716 37.40542,1.7716 0,0 2.15466,1.0357 2.15466,1.0357 2.99252,1.4309 5.39687,3.6853 6.87101,6.443 0,0 1.19008,2.2195 1.19008,2.2195 0,0 0.10595,33.9643 0.10595,33.9643 0,0 0.10595,33.9644 0.10595,33.9644 0,0 -1.01044,2.001 -1.01044,2.001 -1.40323,2.7871 -3.74842,5.0955 -6.70163,6.5963 0,0 -2.38437,1.2186 -2.38437,1.2186 0,0 -36.84086,2.1443 -36.84086,2.1443 -34.31173,2.0028 -36.9502,2.1168 -38.43512,1.6846 0,0 0,-2e-4 0,-2e-4 m 76.75214,-5.7245 c 2.82108,-1.3795 5.32298,-3.8045 6.65315,-6.4485 0,0 1.01268,-2.0072 1.01268,-2.0072 0,0 -0.10513,-33.4097 -0.10513,-33.4097 0,0 -0.10514,-33.4094 -0.10514,-33.4094 0,0 -1.02735,-1.9982 -1.02735,-1.9982 -1.34983,-2.6323 -3.87302,-5.0351 -6.70975,-6.3896 0,0 -2.15951,-1.0366 -2.15951,-1.0366 0,0 -36.7677,-1.7032 -36.7677,-1.7032 0,0 -36.7677,-1.7033 -36.7677,-1.7033 0,0 -2.15084,0.9233 -2.15084,0.9233 -2.82541,1.2203 -5.32731,3.6453 -6.65315,6.4485 0,0 -1.00911,2.1395 -1.00911,2.1395 0,0 0.20595,37.1396 0.20595,37.1396 0,0 0.20596,37.1398 0.20596,37.1398 0,0 1.03092,2.1305 1.03092,2.1305 1.67687,3.4557 4.8147,6.0347 8.5467,7.0269 1.00592,0.2659 8.84257,-0.096 37.46232,-1.7278 0,0 36.19041,-2.0593 36.19041,-2.0593 0,0 2.14729,-1.0555 2.14729,-1.0555 0,0 0,2e-4 0,2e-4 m -75.49245,3.7418 c -3.69892,-1.0858 -6.02577,-2.9897 -7.88185,-6.4514 0,0 -1.05247,-1.969 -1.05247,-1.969 0,0 -0.28132,-35.3048 -0.28132,-35.3048 -0.18523,-23.2339 -0.17267,-35.9223 0.0365,-37.0969 0.96601,-5.415 5.11662,-9.2542 10.61101,-9.8165 1.49714,-0.1516 13.54432,0.3663 36.77344,1.5727 0,0 34.54638,1.781 34.54638,1.781 0,0 2.09841,1.0407 2.09841,1.0407 2.5343,1.2509 4.77786,3.4287 5.9567,5.7821 1.21197,2.4135 1.30522,4.9509 1.44163,39.2301 0,0 0.11706,29.417 0.11706,29.417 0,0 -0.81374,1.4565 -0.81374,1.4565 -1.70794,3.0666 -5.32999,5.7648 -8.94014,6.6543 -1.17322,0.2904 -12.1567,0.9833 -36.34921,2.2926 -32.05124,1.7435 -34.78834,1.84 -36.2624,1.4105 0,0 0,0 0,0 m 36.29002,-16.6709 c -0.01,-2.2257 0.14866,-3.8247 0.47261,-4.764 0.4753,-1.377 0.46841,-1.4334 -0.2765,-2.2579 -0.5228,-0.5797 -0.89844,-1.5817 -1.18991,-3.1743 -0.23428,-1.2808 -0.53772,-2.3929 -0.67431,-2.471 -0.13667,-0.077 -0.33706,0.6543 -0.4455,1.6277 -0.10837,0.9737 -0.35045,2.5328 -0.53782,3.465 -0.4352,2.1669 -0.42042,3.0845 0.11687,7.2628 0.45259,3.516 0.50649,3.6146 1.99333,3.6488 0.49791,0.011 0.55439,-0.3367 0.54114,-3.3371 0,0 9e-5,0 9e-5,0"
           style="fill:#35a23f" />
        <path
           inkscape:connector-curvature="0"
           id="path7875"
           d="m 518.23863,2055.1657 c -3.82511,-1.1238 -6.81179,-3.6506 -8.55123,-7.2372 0,0 -1.02336,-2.116 -1.02336,-2.116 0,0 -0.21067,-37.8385 -0.21067,-37.8385 0,0 -0.21066,-37.8385 -0.21066,-37.8385 0,0 1.16985,-2.3753 1.16985,-2.3753 1.44902,-2.9335 3.83342,-5.2041 6.81396,-6.4896 0,0 2.14604,-0.9195 2.14604,-0.9195 0,0 37.40542,1.7715 37.40542,1.7715 0,0 37.40542,1.7716 37.40542,1.7716 0,0 2.15466,1.0357 2.15466,1.0357 2.99252,1.4309 5.39687,3.6853 6.87101,6.443 0,0 1.19008,2.2195 1.19008,2.2195 0,0 0.10595,33.9643 0.10595,33.9643 0,0 0.10595,33.9644 0.10595,33.9644 0,0 -1.01044,2.001 -1.01044,2.001 -1.40323,2.7871 -3.74842,5.0955 -6.70163,6.5963 0,0 -2.38437,1.2186 -2.38437,1.2186 0,0 -36.84086,2.1443 -36.84086,2.1443 -34.31173,2.0028 -36.9502,2.1168 -38.43512,1.6846 0,0 0,-2e-4 0,-2e-4 m 76.75214,-5.7245 c 2.82108,-1.3795 5.32298,-3.8045 6.65315,-6.4485 0,0 1.01268,-2.0072 1.01268,-2.0072 0,0 -0.10513,-33.4097 -0.10513,-33.4097 0,0 -0.10514,-33.4094 -0.10514,-33.4094 0,0 -1.02735,-1.9982 -1.02735,-1.9982 -1.34983,-2.6323 -3.87302,-5.0351 -6.70975,-6.3896 0,0 -2.15951,-1.0366 -2.15951,-1.0366 0,0 -36.7677,-1.7032 -36.7677,-1.7032 0,0 -36.7677,-1.7033 -36.7677,-1.7033 0,0 -2.15084,0.9233 -2.15084,0.9233 -2.82541,1.2203 -5.32731,3.6453 -6.65315,6.4485 0,0 -1.00911,2.1395 -1.00911,2.1395 0,0 0.20595,37.1396 0.20595,37.1396 0,0 0.20596,37.1398 0.20596,37.1398 0,0 1.03092,2.1305 1.03092,2.1305 1.67687,3.4557 4.8147,6.0347 8.5467,7.0269 1.00592,0.2659 8.84257,-0.096 37.46232,-1.7278 0,0 36.19041,-2.0593 36.19041,-2.0593 0,0 2.14729,-1.0555 2.14729,-1.0555 0,0 0,2e-4 0,2e-4 m -75.49245,3.7418 c -3.69892,-1.0858 -6.02577,-2.9897 -7.88185,-6.4514 0,0 -1.05247,-1.969 -1.05247,-1.969 0,0 -0.28132,-35.3048 -0.28132,-35.3048 -0.18523,-23.2339 -0.17267,-35.9223 0.0365,-37.0969 0.96601,-5.415 5.11662,-9.2542 10.61101,-9.8165 1.49714,-0.1516 13.54432,0.3663 36.77344,1.5727 0,0 34.54638,1.781 34.54638,1.781 0,0 2.09841,1.0407 2.09841,1.0407 2.5343,1.2509 4.77786,3.4287 5.9567,5.7821 1.21197,2.4135 1.30522,4.9509 1.44163,39.2301 0,0 0.11706,29.417 0.11706,29.417 0,0 -0.81374,1.4565 -0.81374,1.4565 -1.70794,3.0666 -5.32999,5.7648 -8.94014,6.6543 -1.17322,0.2904 -12.1567,0.9833 -36.34921,2.2926 -32.05124,1.7435 -34.78834,1.84 -36.2624,1.4105 0,0 0,0 0,0 m 36.29002,-16.6709 c -0.01,-2.2211 0.14888,-3.8251 0.47104,-4.7593 0.46149,-1.3372 0.45304,-1.451 -0.16813,-2.2663 -1.49625,-1.9681 -1.63393,-4.0982 -1.7585,-27.2056 -0.0637,-11.8642 -0.22101,-23.3642 -0.34924,-25.5558 -0.12811,-2.1923 -0.15678,-4.6974 -0.0635,-5.5664 0.0933,-0.8686 0.0464,-1.5107 -0.10415,-1.4267 -0.15057,0.085 -0.24795,-0.033 -0.21643,-0.2587 0.11087,-0.7969 -0.0251,-1.2138 -0.33928,-1.0392 -0.17459,0.096 -0.31584,0.5299 -0.3139,0.9615 0.003,0.5875 -0.9032,1.6485 -3.59738,4.2249 -5.28037,5.0983 -8.10931,9.5868 -10.27439,16.2802 -1.53024,4.7525 -1.99507,8.483 -1.78924,14.3446 0.14925,4.251 0.30854,5.4504 1.03874,7.8196 1.10371,3.5746 2.94993,7.3016 5.08278,10.2566 1.86885,2.5781 5.87724,6.6923 7.83015,8.0419 1.11639,0.7689 1.30876,1.0905 1.62118,2.7108 0.195,1.0105 0.45595,2.8955 0.57999,4.1891 0.23123,2.4108 0.32995,2.5518 1.80926,2.5859 0.49791,0.011 0.55439,-0.3368 0.54114,-3.3371 0,0 -1.1e-4,0 -1.1e-4,0 m 4.72572,-9.1512 c 1.12108,-1.1151 1.9669,-2.0235 1.87952,-2.0214 -0.0874,0 -1.07615,0.9145 -2.19722,2.0299 -1.12099,1.1182 -1.96663,2.0331 -1.87927,2.0306 0.0874,0 1.07597,-0.9213 2.19697,-2.0391 0,0 0,0 0,0 m 9.36277,-16.9919 c -0.10237,-0.2391 -0.17748,-0.1681 -0.19135,0.1833 -0.0118,0.317 0.0634,0.4939 0.16855,0.3932 0.10515,-0.1 0.11547,-0.3601 0.0228,-0.5763 0,0 0,-2e-4 0,-2e-4 m 0.31182,-1.5049 c -0.10238,-0.2391 -0.17749,-0.1683 -0.19137,0.1829 -0.0118,0.3169 0.0634,0.4941 0.16856,0.3934 0.10516,-0.1 0.11547,-0.3596 0.0228,-0.5761 0,0 0,-2e-4 0,-2e-4 m 0.30708,-7.3671 c -0.0659,-1.1223 -0.11307,-0.2831 -0.10506,1.8647 0.008,2.1479 0.062,3.0658 0.1197,2.0401 0.0577,-1.0257 0.0511,-2.7828 -0.0148,-3.9048 0,0 1.6e-4,0 1.6e-4,0 m -0.3599,-4.07 c -0.0889,-0.2074 -0.16062,-0.038 -0.15895,0.3745 0.002,0.4133 0.0745,0.5827 0.16199,0.3767 0.0873,-0.2061 0.0859,-0.5441 -0.003,-0.7512 0,0 0,0 0,0 m -7.91745,-17.6831 c -2.7e-4,-0.062 -0.25183,-0.3087 -0.55905,-0.5464 -0.50627,-0.3919 -0.51749,-0.3813 -0.11961,0.1113 0.41781,0.5169 0.67976,0.6847 0.6787,0.4351 0,0 -4e-5,0 -4e-5,0 m -1.27915,-1.5434 c -2.5e-4,-0.058 -0.32372,-0.3748 -0.71885,-0.7047 0,0 -0.71843,-0.601 -0.71843,-0.601 0,0 0.60911,0.7025 0.60911,0.7025 0.57237,0.6591 0.82921,0.8461 0.82817,0.6032 0,0 0,0 0,0 m -4.15521,-4.4024 c -2.8e-4,-0.063 -0.25195,-0.3123 -0.55926,-0.5532 -0.50642,-0.3975 -0.51762,-0.3872 -0.11961,0.1112 0.41797,0.5228 0.68002,0.6933 0.67891,0.4422 0,0 -4e-5,-2e-4 -4e-5,-2e-4"
           style="fill:#735742" />
        <path
           inkscape:connector-curvature="0"
           id="path7873"
           d="m 518.23863,2055.1657 c -3.82511,-1.1238 -6.81179,-3.6506 -8.55123,-7.2372 0,0 -1.02336,-2.116 -1.02336,-2.116 0,0 -0.21067,-37.8385 -0.21067,-37.8385 0,0 -0.21066,-37.8385 -0.21066,-37.8385 0,0 1.16985,-2.3753 1.16985,-2.3753 1.44902,-2.9335 3.83342,-5.2041 6.81396,-6.4896 0,0 2.14604,-0.9195 2.14604,-0.9195 0,0 37.40542,1.7715 37.40542,1.7715 0,0 37.40542,1.7716 37.40542,1.7716 0,0 2.15466,1.0357 2.15466,1.0357 2.99252,1.4309 5.39687,3.6853 6.87101,6.443 0,0 1.19008,2.2195 1.19008,2.2195 0,0 0.10595,33.9643 0.10595,33.9643 0,0 0.10595,33.9644 0.10595,33.9644 0,0 -1.01044,2.001 -1.01044,2.001 -1.40323,2.7871 -3.74842,5.0955 -6.70163,6.5963 0,0 -2.38437,1.2186 -2.38437,1.2186 0,0 -36.84086,2.1443 -36.84086,2.1443 -34.31173,2.0028 -36.9502,2.1168 -38.43512,1.6846 0,0 0,-2e-4 0,-2e-4 m 73.90025,-4.6218 c 2.84478,-0.7121 4.92958,-1.9084 7.00196,-4.0134 2.05347,-2.0758 2.9463,-3.6489 3.53174,-6.2272 0.6536,-2.8739 0.46686,-62.5869 -0.20594,-65.4549 -0.60285,-2.573 -1.5075,-4.1382 -3.57872,-6.1959 -2.09082,-2.0868 -4.18845,-3.2645 -7.0448,-3.9515 -3.21128,-0.7769 -68.91675,-3.8698 -72.12226,-3.3417 -2.85125,0.4737 -4.93887,1.5656 -7.0112,3.6723 -2.05288,2.0968 -2.9433,3.7591 -3.5224,6.5721 -0.64629,3.1443 -0.27657,69.6273 0.40354,72.7658 0.60919,2.8077 1.51625,4.4621 3.58802,6.5407 2.04859,2.046 4.19,3.1655 6.88681,3.6044 3.02749,0.4886 68.98091,-3.1922 72.07327,-3.9636 0,0 -2e-5,-0.01 -2e-5,-0.01 m -72.60592,2.5756 c -3.62341,-0.9679 -6.51055,-3.4694 -8.25156,-7.1528 -0.6904,-1.4643 -0.72489,-1.9362 -0.86234,-11.8018 -0.0788,-5.6527 -0.0954,-22.1347 -0.0371,-36.622 0,0 0.1066,-26.3293 0.1066,-26.3293 0,0 0.86303,-1.7735 0.86303,-1.7735 1.23134,-2.5241 3.06343,-4.4037 5.36642,-5.5063 0,0 1.99407,-0.9496 1.99407,-0.9496 0,0 15.36804,4.9926 15.36804,4.9926 0,0 15.36408,4.8465 15.36408,4.8465 0,0 -1.94674,2.1252 -1.94674,2.1252 -8.93845,9.886 -12.66711,24.8643 -9.26874,36.9614 0.94082,3.3347 3.76204,8.6805 6.21819,11.7736 1.16203,1.4578 3.45537,3.8182 5.0963,5.2441 3.32411,2.8725 3.37856,2.9892 3.88316,8.3237 0.19346,2.0437 0.30718,2.3572 0.90202,2.4869 1.37722,0.2992 1.39539,0.2543 1.52701,-3.7741 0.0739,-2.263 0.29759,-4.2474 0.53279,-4.728 0.35614,-0.7274 0.32279,-0.9362 -0.2748,-1.7203 -1.49605,-1.9677 -1.61614,-3.9245 -1.88749,-30.7541 -0.13976,-13.8024 -0.30581,-26.0811 -0.36939,-27.2836 0,0 -0.11542,-2.1869 -0.11542,-2.1869 0,0 1.0057,1.8336 1.0057,1.8336 0.55307,1.007 2.10618,2.9848 3.45124,4.3926 1.34497,1.4038 3.11315,3.474 3.92936,4.6026 0.81615,1.1265 1.62572,2.1866 1.79911,2.3572 0.65524,0.6446 -1.26155,-2.2272 -2.6719,-4.0111 -2.10389,-2.6711 -2.09396,-2.6453 -0.88439,-2.2817 9.08674,2.7022 40.76839,11.9617 40.87046,12.0562 0.0761,0.071 0.21189,12.1086 0.30168,26.7499 0,0 0.16336,26.6167 0.16336,26.6167 0,0 -0.93575,1.593 -0.93575,1.593 -1.75652,3.0003 -5.28064,5.473 -9.02838,6.3293 -1.07084,0.2455 -14.2065,1.0624 -36.00864,2.2382 -32.72628,1.7582 -34.41019,1.8258 -36.20003,1.3518 0,0 2e-5,0 2e-5,0 m 40.9811,-25.7586 c 1.12108,-1.1151 1.9669,-2.0235 1.87952,-2.0214 -0.0874,0 -1.07615,0.9145 -2.19722,2.0299 -1.12099,1.1182 -1.96663,2.0331 -1.87927,2.0306 0.0874,0 1.07597,-0.9213 2.19697,-2.0391 0,0 0,0 0,0 m 9.36277,-16.9919 c -0.10237,-0.2391 -0.17748,-0.1681 -0.19135,0.1833 -0.0118,0.317 0.0634,0.4939 0.16855,0.3932 0.10515,-0.1 0.11547,-0.3601 0.0228,-0.5763 0,0 0,-2e-4 0,-2e-4 m 0.31182,-1.5049 c -0.10238,-0.2391 -0.17749,-0.1683 -0.19137,0.1829 -0.0118,0.3169 0.0634,0.4941 0.16856,0.3934 0.10516,-0.1 0.11547,-0.3596 0.0228,-0.5761 0,0 0,-2e-4 0,-2e-4 m 0.30708,-7.3671 c -0.0659,-1.1223 -0.11307,-0.2831 -0.10506,1.8647 0.008,2.1479 0.062,3.0658 0.1197,2.0401 0.0577,-1.0257 0.0511,-2.7828 -0.0148,-3.9048 0,0 1.6e-4,0 1.6e-4,0 m -0.3599,-4.07 c -0.0889,-0.2074 -0.16062,-0.038 -0.15895,0.3745 0.002,0.4133 0.0745,0.5827 0.16199,0.3767 0.0873,-0.2061 0.0859,-0.5441 -0.003,-0.7512 0,0 0,0 0,0"
           style="fill:#674d3b" />
        <path
           inkscape:connector-curvature="0"
           id="path7871"
           d="m 518.23863,2055.1657 c -3.82511,-1.1238 -6.81179,-3.6506 -8.55123,-7.2372 0,0 -1.02336,-2.116 -1.02336,-2.116 0,0 -0.21067,-37.8385 -0.21067,-37.8385 0,0 -0.21066,-37.8385 -0.21066,-37.8385 0,0 1.16985,-2.3753 1.16985,-2.3753 1.44902,-2.9335 3.83342,-5.2041 6.81396,-6.4896 0,0 2.14604,-0.9195 2.14604,-0.9195 0,0 37.40542,1.7715 37.40542,1.7715 0,0 37.40542,1.7716 37.40542,1.7716 0,0 2.15466,1.0357 2.15466,1.0357 2.99252,1.4309 5.39687,3.6853 6.87101,6.443 0,0 1.19008,2.2195 1.19008,2.2195 0,0 0.10595,33.9643 0.10595,33.9643 0,0 0.10595,33.9644 0.10595,33.9644 0,0 -1.01044,2.001 -1.01044,2.001 -1.40323,2.7871 -3.74842,5.0955 -6.70163,6.5963 0,0 -2.38437,1.2186 -2.38437,1.2186 0,0 -36.84086,2.1443 -36.84086,2.1443 -34.31173,2.0028 -36.9502,2.1168 -38.43512,1.6846 0,0 0,-2e-4 0,-2e-4 m 73.87532,-4.5189 c 5.21828,-1.3061 9.56554,-5.5196 10.65956,-10.3314 0.49729,-2.1826 0.30605,-63.3018 -0.20582,-65.48 -1.12663,-4.802 -5.51088,-8.9771 -10.75026,-10.237 -2.38114,-0.5769 -69.69494,-3.7408 -72.07181,-3.348 -5.22997,0.8733 -9.57724,5.0868 -10.65956,10.3314 -0.49174,2.3876 -0.11345,70.4272 0.40396,72.8104 1.10967,5.1033 5.2539,9.1806 10.33732,10.169 2.17883,0.4195 69.77278,-3.2808 72.28661,-3.9136 0,0 0,-8e-4 0,-8e-4 m -71.61843,2.7013 c -3.40837,-0.6191 -7.04718,-3.3414 -8.69449,-6.5091 0,0 -0.91769,-1.7693 -0.91769,-1.7693 0,0 -0.25891,-31.6859 -0.25891,-31.6859 0,0 -0.25884,-31.6916 -0.25884,-31.6916 0,0 2.15537,0.6672 2.15537,0.6672 1.18544,0.3658 7.53653,2.3242 14.11294,4.3284 0,0 11.95521,3.5751 11.95521,3.5751 0,0 -0.54615,2.3284 -0.54615,2.3284 -1.46508,6.2627 -1.48121,13.425 -0.0431,18.7946 1.72472,6.4201 6.56545,13.6227 12.27881,18.2406 2.29277,1.8363 2.5119,2.334 2.99484,6.804 0.33438,3.093 0.54333,3.4994 1.77673,3.4577 0.64657,-0.026 0.68123,-0.1875 0.78981,-3.7889 0.0964,-3.1954 0.21914,-3.9418 0.81141,-4.9323 0.38382,-0.6411 0.56594,-1.0831 0.40469,-0.9823 -0.58139,0.3636 -1.63246,-1.6109 -2.09955,-3.9471 -0.38602,-1.9324 -0.52508,-7.1625 -0.73056,-27.4759 -0.13976,-13.8024 -0.30581,-26.081 -0.36939,-27.2836 0,0 -0.11542,-2.1869 -0.11542,-2.1869 0,0 1.01534,1.8512 1.01534,1.8512 0.55837,1.0166 2.01323,2.8849 3.23295,4.1501 4.23924,4.3715 7.26748,8.8678 9.32107,13.8526 2.24671,5.4288 2.70291,7.5522 2.95465,13.7658 0,0 0.22525,5.5572 0.22525,5.5572 0,0 0.0394,-4.5393 0.0394,-4.5393 0,0 0.0394,-4.5389 0.0394,-4.5389 0,0 13.76607,3.7262 13.76607,3.7262 7.56997,1.9992 14.51455,3.8051 15.43331,4.0456 0,0 1.67038,0.4353 1.67038,0.4353 0,0 0.0546,17.1809 0.0546,17.1809 0,0 0.0546,17.181 0.0546,17.181 0,0 -1.21782,1.7849 -1.21782,1.7849 -2.09799,3.0872 -5.2238,5.0782 -9.13265,5.8095 -2.76977,0.521 -68.98651,4.1042 -70.70208,3.7954 0,0 -2.5e-4,-6e-4 -2.5e-4,-6e-4 m 40.01854,-25.9872 c 1.12108,-1.1151 1.9669,-2.0235 1.87952,-2.0214 -0.0874,0 -1.07615,0.9145 -2.19722,2.0299 -1.12099,1.1182 -1.96663,2.0331 -1.87927,2.0306 0.0874,0 1.07597,-0.9213 2.19697,-2.0391 0,0 0,0 0,0 m 9.05101,-15.486 c -0.10237,-0.239 -0.17748,-0.1678 -0.19135,0.1837 -0.0118,0.3172 0.0634,0.494 0.16856,0.3931 0.10514,-0.1002 0.11545,-0.3604 0.0228,-0.5765 0,0 0,-3e-4 0,-3e-4 m 0.65645,-2.6541 c -0.007,-0.6748 -0.0333,-0.6594 -0.24799,0.1523 -0.13152,0.4968 -0.24056,1.174 -0.24248,1.5046 -0.002,0.4713 0.051,0.4382 0.24795,-0.1527 0.13841,-0.4144 0.24744,-1.0913 0.24251,-1.5044 0,0 10e-6,2e-4 10e-6,2e-4"
           style="fill:#594236" />
        <path
           inkscape:connector-curvature="0"
           id="path7869"
           d="m 518.16809,2055.0748 c -3.97584,-1.0461 -7.61082,-4.5689 -9.00548,-8.7286 -0.65611,-1.9608 -0.66834,-2.5018 -0.86808,-38.3549 -0.19974,-35.8529 -0.194,-36.394 0.44186,-38.3607 1.37353,-4.2408 4.96234,-7.7417 9.03805,-8.8183 2.05736,-0.5389 2.77402,-0.517 38.00287,1.1575 35.22886,1.6746 35.94566,1.7288 38.00837,2.4021 4.08636,1.3435 7.70592,4.8115 9.11542,8.7325 0.65203,1.81 0.6628,2.2961 0.76301,34.4665 0.1002,32.1706 0.093,32.6568 -0.54698,34.4723 -1.38182,3.9335 -4.97068,7.4333 -9.03819,8.8125 -2.05469,0.701 -2.74085,0.7502 -38.01049,2.726 -34.86122,1.9471 -35.97643,1.9947 -37.90036,1.4931 0,0 0,0 0,0 m 75.11156,-4.7146 c 2.60361,-0.8888 4.37811,-1.9884 6.12109,-3.7908 1.65443,-1.7044 2.48701,-3.1042 3.22134,-5.4179 0.45223,-1.4226 0.49572,-5.0159 0.40623,-33.5778 -0.0895,-28.5616 -0.15565,-32.1545 -0.61761,-33.5732 -0.7504,-2.307 -1.59361,-3.6995 -3.26256,-5.3891 -1.75866,-1.7872 -3.54455,-2.8709 -6.16028,-3.7367 -1.84042,-0.612 -3.54709,-0.7173 -37.20786,-2.2941 -33.66077,-1.5768 -35.36721,-1.6283 -37.20276,-1.1431 -2.60888,0.6949 -4.38548,1.7163 -6.12828,3.5257 -1.6539,1.7238 -2.48447,3.1979 -3.21366,5.7019 -0.44896,1.544 -0.48158,5.5384 -0.30497,37.3234 0.17661,31.7852 0.25362,35.7791 0.71883,37.3189 0.75554,2.4976 1.60076,3.9643 3.27024,5.6735 1.72718,1.7615 3.52856,2.7921 6.04919,3.4624 1.70844,0.4516 3.85434,0.3665 37.10231,-1.4721 33.69986,-1.8596 35.37543,-1.9733 37.20875,-2.611 0,0 0,0 0,0 m -72.40275,2.9269 c -3.71239,-0.4359 -7.45082,-3.2388 -9.21518,-6.9169 0,0 -0.94532,-1.9762 -0.94532,-1.9762 0,0 -0.0407,-22.1758 -0.0407,-22.1758 0,0 -0.0406,-22.1718 -0.0406,-22.1718 0,0 13.1777,3.7962 13.1777,3.7962 7.2465,2.0421 13.19991,3.7284 13.23064,3.7771 0.0306,0.049 0.24291,1.0002 0.47153,2.1137 1.47255,7.1612 5.79408,13.9702 12.60433,19.81 2.31279,1.9627 2.68738,2.8005 3.14314,7.032 0.31645,2.9362 0.54123,3.3551 1.77781,3.3132 0.63059,-0.026 0.67679,-0.2293 0.86488,-3.9151 0.15642,-3.0614 0.33152,-4.1128 0.82149,-4.9321 0.34252,-0.5721 0.49083,-0.9575 0.32959,-0.8567 -0.5814,0.3636 -1.63247,-1.6109 -2.09956,-3.9471 -0.38602,-1.9324 -0.52508,-7.1625 -0.73056,-27.4759 -0.13976,-13.8024 -0.30581,-26.081 -0.36938,-27.2836 0,0 -0.11542,-2.1869 -0.11542,-2.1869 0,0 0.99983,1.8231 0.99983,1.8231 0.54985,1.001 2.18486,3.0678 3.63326,4.5898 4.55547,4.7562 7.79999,9.9767 9.91141,15.9615 1.55289,4.3847 1.96266,6.853 1.97548,11.9087 0.0134,4.9524 -0.47167,7.8773 -1.94464,11.7565 -0.42586,1.1242 -0.64903,2.0429 -0.49594,2.0405 0.15316,0 0.27987,-0.1741 0.28169,-0.3809 0.009,-1.0685 0.49211,-1.2159 2.372,-0.7257 1.74299,0.4527 2.02795,0.4421 6.31593,-0.2296 8.09458,-1.2517 17.15035,-3.7923 22.50973,-6.3064 0,0 2.14255,-0.9963 2.14255,-0.9963 0,0 0.0522,16.4221 0.0522,16.4221 0.0512,16.1233 0.0392,16.4457 -0.61479,17.7177 -1.01865,1.983 -3.44717,4.2085 -5.89258,5.4013 0,0 -2.14782,1.0528 -2.14782,1.0528 0,0 -17.77826,1.032 -17.77826,1.032 -9.77801,0.5693 -25.66028,1.4972 -35.29394,2.0611 -9.63363,0.5649 -18.1343,0.9558 -18.89038,0.8679 0,0 -1.5e-4,-2e-4 -1.5e-4,-2e-4 m 39.63716,-25.9262 c 1.47153,-1.4578 2.60411,-2.6453 2.51674,-2.6432 -0.0874,0 -1.36292,1.1934 -2.83444,2.6517 -1.47138,1.4631 -2.60367,2.6616 -2.5163,2.659 0.0874,0 1.3626,-1.2049 2.834,-2.6675 0,0 0,0 0,0 m 3.20326,-3.4921 c 0.39322,-0.489 0.38192,-0.4995 -0.12041,-0.1117 -0.30486,0.2358 -0.55408,0.4801 -0.55381,0.543 0.001,0.2493 0.26131,0.083 0.67426,-0.4313 0,0 -4e-5,0 -4e-5,0 m 0.94815,-1.2315 c 0.39324,-0.488 0.38197,-0.4983 -0.12041,-0.1118 -0.3049,0.2349 -0.55412,0.4786 -0.55385,0.5414 10e-4,0.2492 0.26129,0.084 0.67428,-0.4298 0,0 -2e-5,2e-4 -2e-5,2e-4"
           style="fill:#008d3e" />
        <path
           inkscape:connector-curvature="0"
           id="path7867"
           d="m 518.16809,2055.0748 c -3.97584,-1.0461 -7.61082,-4.5689 -9.00548,-8.7286 -0.65611,-1.9608 -0.66834,-2.5018 -0.86808,-38.3549 -0.19974,-35.8529 -0.194,-36.394 0.44186,-38.3607 1.37353,-4.2408 4.96234,-7.7417 9.03805,-8.8183 2.05736,-0.5389 2.77402,-0.517 38.00287,1.1575 35.22886,1.6746 35.94566,1.7288 38.00837,2.4021 4.08636,1.3435 7.70592,4.8115 9.11542,8.7325 0.65203,1.81 0.6628,2.2961 0.76301,34.4665 0.1002,32.1706 0.093,32.6568 -0.54698,34.4723 -1.38182,3.9335 -4.97068,7.4333 -9.03819,8.8125 -2.05469,0.701 -2.74085,0.7502 -38.01049,2.726 -34.86122,1.9471 -35.97643,1.9947 -37.90036,1.4931 0,0 0,0 0,0 m 75.11156,-4.7146 c 2.60361,-0.8888 4.37811,-1.9884 6.12109,-3.7908 1.65443,-1.7044 2.48701,-3.1042 3.22134,-5.4179 0.45223,-1.4226 0.49572,-5.0159 0.40623,-33.5778 -0.0895,-28.5616 -0.15565,-32.1545 -0.61761,-33.5732 -0.7504,-2.307 -1.59361,-3.6995 -3.26256,-5.3891 -1.75866,-1.7872 -3.54455,-2.8709 -6.16028,-3.7367 -1.84042,-0.612 -3.54709,-0.7173 -37.20786,-2.2941 -33.66077,-1.5768 -35.36721,-1.6283 -37.20276,-1.1431 -2.60888,0.6949 -4.38548,1.7163 -6.12828,3.5257 -1.6539,1.7238 -2.48447,3.1979 -3.21366,5.7019 -0.44896,1.544 -0.48158,5.5384 -0.30497,37.3234 0.17661,31.7852 0.25362,35.7791 0.71883,37.3189 0.75554,2.4976 1.60076,3.9643 3.27024,5.6735 1.72718,1.7615 3.52856,2.7921 6.04919,3.4624 1.70844,0.4516 3.85434,0.3665 37.10231,-1.4721 33.69986,-1.8596 35.37543,-1.9733 37.20875,-2.611 0,0 0,0 0,0 m -72.40271,2.9269 c -3.71241,-0.4359 -7.45084,-3.2388 -9.21522,-6.9169 0,0 -0.94532,-1.9762 -0.94532,-1.9762 0,0 -0.0407,-22.1758 -0.0407,-22.1758 0,0 -0.0406,-22.1718 -0.0406,-22.1718 0,0 13.1777,3.7962 13.1777,3.7962 7.2465,2.0421 13.19991,3.7284 13.23064,3.7771 0.0306,0.049 0.24291,1.0002 0.47153,2.1137 1.47255,7.1612 5.79408,13.9702 12.60433,19.81 2.31279,1.9627 2.68738,2.8005 3.14314,7.032 0.31645,2.9362 0.54123,3.3551 1.77781,3.3132 0.6303,-0.026 0.67679,-0.2293 0.86319,-3.8821 0.10836,-2.122 0.35565,-4.1498 0.54943,-4.5068 0.19371,-0.3568 1.55607,-1.7831 3.02735,-3.1654 3.23276,-3.0211 5.02932,-5.2513 6.78279,-8.4259 0.72646,-1.3114 1.41736,-2.4521 1.53531,-2.5367 0.11786,-0.085 0.31359,-0.4605 0.43481,-0.8351 0.26222,-0.8098 0.24534,-0.8081 2.37407,-0.241 1.56623,0.4158 1.97131,0.3985 6.17493,-0.2605 8.10258,-1.2531 17.15643,-3.7927 22.51789,-6.3078 0,0 2.14254,-0.9963 2.14254,-0.9963 0,0 0.0522,16.4221 0.0522,16.4221 0.0512,16.1233 0.0392,16.4458 -0.61479,17.7178 -1.01865,1.9829 -3.44717,4.2084 -5.89258,5.4012 0,0 -2.14782,1.0528 -2.14782,1.0528 0,0 -17.46079,1.0149 -17.46079,1.0149 -9.60339,0.5598 -25.48564,1.4876 -35.29388,2.0609 -9.8082,0.5744 -18.45174,0.973 -19.20787,0.8851 0,0 -1.2e-4,0 -1.2e-4,0"
           style="fill:#523c31" />
        <path
           inkscape:connector-curvature="0"
           id="path7865"
           d="m 518.86536,2052.8166 c -3.3818,-1.1582 -6.19068,-3.8624 -7.4981,-7.2187 -0.62181,-1.5992 -0.65309,-2.4039 -0.74573,-19.1879 -0.0532,-9.635 0.0109,-17.4635 0.1424,-17.396 7.32739,3.7184 16.25576,6.3948 25.96423,7.803 0,0 3.43646,0.4905 3.43646,0.4905 0,0 1.10578,2.0151 1.10578,2.0151 2.10721,3.8272 6.96232,9.2748 10.12506,11.3633 0.72939,0.4796 0.95997,0.9809 1.36363,2.9651 0.26716,1.3124 0.48874,3.053 0.4924,3.8687 0.007,1.6512 0.57157,2.4232 1.73613,2.3756 0.63991,-0.026 0.7502,-0.2217 0.92023,-1.6415 0.10615,-0.8863 0.19109,-2.5733 0.18853,-3.7494 -0.006,-2.3092 0.48709,-3.6281 1.66002,-4.4462 2.70628,-1.8795 6.49843,-6.357 8.72066,-10.2888 0,0 1.31752,-2.3211 1.31752,-2.3211 0,0 2.29669,-0.2382 2.29669,-0.2382 9.79472,-1.003 21.02706,-3.7574 28.09348,-6.8626 1.66851,-0.7258 3.08433,-1.3176 3.1462,-1.318 0.0618,-4e-4 0.13454,7.331 0.16127,16.2921 0,0 0.0496,16.2928 0.0496,16.2928 0,0 -0.92032,1.5145 -0.92032,1.5145 -1.25288,2.0672 -4.05427,4.4949 -6.2766,5.4376 0,0 -1.82223,0.7763 -1.82223,0.7763 0,0 -36.03303,2.0047 -36.03303,2.0047 -35.18328,1.9618 -36.07041,1.9966 -37.62361,1.4686 0,0 -6.8e-4,5e-4 -6.8e-4,5e-4"
           style="fill:#3e2d29" />
      </g>
    </g>
  </g>
</svg>
