<?xml version="1.0" encoding="UTF-8" standalone="no"?>
<!-- Created with Inkscape (http://www.inkscape.org/) -->

<svg
   xmlns:dc="http://purl.org/dc/elements/1.1/"
   xmlns:cc="http://creativecommons.org/ns#"
   xmlns:rdf="http://www.w3.org/1999/02/22-rdf-syntax-ns#"
   xmlns:svg="http://www.w3.org/2000/svg"
   xmlns="http://www.w3.org/2000/svg"
   xmlns:sodipodi="http://sodipodi.sourceforge.net/DTD/sodipodi-0.dtd"
   xmlns:inkscape="http://www.inkscape.org/namespaces/inkscape"
   width="37.209801"
   height="32.000011"
   id="svg4238"
   version="1.1"
   inkscape:version="0.48.4 r9939"
   sodipodi:docname="navbar-github.svg"
   inkscape:export-filename="/home/john/workspace/new_picta-it/assets/images/navbar-github.png"
   inkscape:export-xdpi="90"
   inkscape:export-ydpi="90">
  <defs
     id="defs4240" />
  <sodipodi:namedview
     id="base"
     pagecolor="#ffffff"
     bordercolor="#666666"
     borderopacity="1.0"
     inkscape:pageopacity="0.0"
     inkscape:pageshadow="2"
     inkscape:zoom="5.6"
     inkscape:cx="21.138327"
     inkscape:cy="12.301137"
     inkscape:document-units="px"
     inkscape:current-layer="layer1"
     showgrid="false"
     fit-margin-top="0"
     fit-margin-left="0"
     fit-margin-right="0"
     fit-margin-bottom="0"
     inkscape:window-width="464"
     inkscape:window-height="420"
     inkscape:window-x="5"
     inkscape:window-y="75"
     inkscape:window-maximized="0" />
  <metadata
     id="metadata4243">
    <rdf:RDF>
      <cc:Work
         rdf:about="">
        <dc:format>image/svg+xml</dc:format>
        <dc:type
           rdf:resource="http://purl.org/dc/dcmitype/StillImage" />
        <dc:title></dc:title>
      </cc:Work>
    </rdf:RDF>
  </metadata>
  <g
     inkscape:label="Layer 1"
     inkscape:groupmode="layer"
     id="layer1"
     transform="translate(-356.3951,-516.36218)">
    <path
       style="fill:#f2fbfc;fill-opacity:1"
       inkscape:connector-curvature="0"
       d="m 374.9992,516.36218 c -10.2737,0 -18.6041,7.35 -18.6041,16.40714 0,7.24999 5.3321,13.39285 12.7239,15.56427 0.1162,0.0214 0.2159,0.0286 0.3156,0.0286 0.6894,0 0.9552,-0.43571 0.9552,-0.81428 0,-0.39286 -0.017,-1.42143 -0.025,-2.79285 -0.6977,0.13571 -1.3206,0.19285 -1.8771,0.19285 -3.5796,0 -4.3935,-2.39285 -4.3935,-2.39285 -0.8472,-1.89286 -2.0681,-2.4 -2.0681,-2.4 -1.6195,-0.97858 -0.01,-1.00714 0.1163,-1.00714 0.01,0 0.01,0 0.01,0 1.8687,0.14284 2.8487,1.69999 2.8487,1.69999 0.9303,1.40001 2.1761,1.79286 3.289,1.79286 0.8721,0 1.661,-0.24285 2.1262,-0.42857 0.1661,-1.05714 0.6478,-1.77857 1.1794,-2.19286 -4.1279,-0.41428 -8.4716,-1.82142 -8.4716,-8.10713 0,-1.79286 0.7225,-3.25715 1.9102,-4.4 -0.191,-0.41429 -0.8305,-2.08572 0.1828,-4.34286 0,0 0.1329,-0.0357 0.4152,-0.0357 0.6728,0 2.1927,0.22143 4.7009,1.72143 1.4867,-0.36429 3.073,-0.54286 4.6593,-0.55 1.5779,0.007 3.1727,0.18571 4.6594,0.55 2.5082,-1.5 4.0281,-1.72143 4.7008,-1.72143 0.2824,0 0.4154,0.0357 0.4154,0.0357 1.0132,2.25714 0.3737,3.92857 0.1826,4.34286 1.1877,1.15 1.9103,2.61428 1.9103,4.4 0,6.29999 -4.352,7.6857 -8.4965,8.09285 0.6645,0.50714 1.2625,1.50714 1.2625,3.03571 0,2.19286 -0.025,3.96428 -0.025,4.5 0,0.38571 0.2576,0.82142 0.9468,0.82142 0.1,0 0.216,-0.007 0.3322,-0.0286 7.4001,-2.17142 12.7239,-8.32142 12.7239,-15.56427 0,-9.05714 -8.3303,-16.40714 -18.6041,-16.40714 z"
       id="path11772" />
  </g>
</svg>
