<?xml version="1.0" encoding="UTF-8" standalone="no"?>
<!-- Created with Inkscape (http://www.inkscape.org/) -->

<svg
   xmlns:dc="http://purl.org/dc/elements/1.1/"
   xmlns:cc="http://creativecommons.org/ns#"
   xmlns:rdf="http://www.w3.org/1999/02/22-rdf-syntax-ns#"
   xmlns:svg="http://www.w3.org/2000/svg"
   xmlns="http://www.w3.org/2000/svg"
   xmlns:sodipodi="http://sodipodi.sourceforge.net/DTD/sodipodi-0.dtd"
   xmlns:inkscape="http://www.inkscape.org/namespaces/inkscape"
   width="32.000271"
   height="32.000034"
   id="svg3770"
   version="1.1"
   inkscape:version="0.48.4 r9939"
   inkscape:export-filename="/home/john/workspace/new_picta-it/assets/images/navbar-git.png"
   inkscape:export-xdpi="150"
   inkscape:export-ydpi="150"
   sodipodi:docname="navbar-git.svg">
  <defs
     id="defs3772" />
  <sodipodi:namedview
     id="base"
     pagecolor="#ffffff"
     bordercolor="#666666"
     borderopacity="1.0"
     inkscape:pageopacity="0.0"
     inkscape:pageshadow="2"
     inkscape:zoom="15.839192"
     inkscape:cx="5.4979343"
     inkscape:cy="12.524859"
     inkscape:document-units="px"
     inkscape:current-layer="layer1"
     showgrid="false"
     fit-margin-top="0"
     fit-margin-left="0"
     fit-margin-right="0"
     fit-margin-bottom="0"
     inkscape:window-width="1364"
     inkscape:window-height="718"
     inkscape:window-x="0"
     inkscape:window-y="0"
     inkscape:window-maximized="1" />
  <metadata
     id="metadata3775">
    <rdf:RDF>
      <cc:Work
         rdf:about="">
        <dc:format>image/svg+xml</dc:format>
        <dc:type
           rdf:resource="http://purl.org/dc/dcmitype/StillImage" />
        <dc:title></dc:title>
      </cc:Work>
    </rdf:RDF>
  </metadata>
  <g
     inkscape:label="Layer 1"
     inkscape:groupmode="layer"
     id="layer1"
     transform="translate(-370.05725,-506.25169)">
    <path
       inkscape:connector-curvature="0"
       style="fill:#f2fbfc;fill-opacity:1;fill-rule:nonzero;stroke:none"
       d="m 387.68192,506.92752 c -0.90111,-0.9011 -2.35036,-0.9011 -3.25146,-1e-5 l -2.77082,2.77083 3.63593,3.63594 c 0.869,-0.28439 1.85856,-0.0806 2.54931,0.61016 0.69078,0.69077 0.89457,1.68033 0.6102,2.54934 l 3.56068,3.5607 c 0.8678,-0.28196 1.8599,-0.0793 2.54934,0.61016 0.97863,0.97864 0.97864,2.56534 0,3.54399 -0.97866,0.97863 -2.56535,0.97863 -3.54398,0 -0.72933,-0.72933 -0.91774,-1.7984 -0.56003,-2.69978 l -3.26398,-3.26398 0,8.70115 c 0.22701,0.11624 0.44102,0.26549 0.63107,0.45554 0.97864,0.97864 0.97864,2.56534 0,3.54398 -0.97864,0.97864 -2.56535,0.97864 -3.54398,0 -0.97865,-0.97864 -0.97866,-2.56534 0,-3.54398 0.23204,-0.23206 0.50145,-0.41297 0.7857,-0.53494 l 0,-8.85161 c -0.2788,-0.1221 -0.54107,-0.29867 -0.76899,-0.52659 -0.72933,-0.72933 -0.91772,-1.79838 -0.56001,-2.69978 l -3.58579,-3.58578 -9.41997,9.41998 c -0.9011,0.9011 -0.90526,2.35452 -0.004,3.25563 l 13.69951,13.6995 c 0.90108,0.90109 2.35453,0.89692 3.25561,-0.004 l 13.69545,-13.69536 c 0.90109,-0.90109 0.90108,-2.35035 0,-3.25144 L 387.6816,506.92739 z"
       id="rect11902" />
  </g>
</svg>
